<svg width="13" height="17" viewBox="0 0 13 17" fill="none" xmlns="http://www.w3.org/2000/svg">
<path fill-rule="evenodd" clip-rule="evenodd" d="M0.290542 2.92411H0.292719C0.533232 2.92411 0.728037 2.7286 0.728037 2.4877C0.728037 2.24681 0.533232 2.0513 0.292719 2.0513H0.290542C0.050247 2.0513 -0.144775 2.24681 -0.144775 2.4877C-0.144775 2.7286 0.050247 2.92411 0.290542 2.92411Z" fill="#130D3A"/>
<path fill-rule="evenodd" clip-rule="evenodd" d="M2.76459 2.92411C2.87937 2.92411 2.99196 2.87763 3.07313 2.79624C3.15452 2.71507 3.201 2.6027 3.201 2.4877C3.201 2.37271 3.15452 2.26033 3.07313 2.17916C2.99196 2.09777 2.87937 2.0513 2.76459 2.0513C2.6496 2.0513 2.53722 2.09777 2.45583 2.17916C2.37466 2.26033 2.32819 2.37271 2.32819 2.4877C2.32819 2.6027 2.37466 2.71507 2.45583 2.79624C2.53722 2.87763 2.6496 2.92411 2.76459 2.92411Z" fill="#130D3A"/>
<path fill-rule="evenodd" clip-rule="evenodd" d="M5.23755 2.92411C5.35255 2.92411 5.46492 2.87763 5.54631 2.79624C5.62748 2.71507 5.67396 2.6027 5.67396 2.4877C5.67396 2.37271 5.62748 2.26033 5.54631 2.17916C5.46492 2.09777 5.35255 2.0513 5.23755 2.0513C5.12278 2.0513 5.01019 2.09777 4.92901 2.17916C4.84762 2.26033 4.80115 2.37271 4.80115 2.4877C4.80115 2.6027 4.84762 2.71507 4.92901 2.79624C5.01019 2.87763 5.12278 2.92411 5.23755 2.92411Z" fill="#130D3A"/>
<path fill-rule="evenodd" clip-rule="evenodd" d="M10.0369 2.92411H10.0391C10.2796 2.92411 10.4744 2.7286 10.4744 2.4877C10.4744 2.24681 10.2796 2.0513 10.0391 2.0513H10.0369C9.79665 2.0513 9.60162 2.24681 9.60162 2.4877C9.60162 2.7286 9.79665 2.92411 10.0369 2.92411Z" fill="#130D3A"/>
<path fill-rule="evenodd" clip-rule="evenodd" d="M7.56398 2.92411H7.56616C7.80645 2.92411 8.00147 2.7286 8.00147 2.4877C8.00147 2.24681 7.80645 2.0513 7.56616 2.0513H7.56398C7.32368 2.0513 7.12866 2.24681 7.12866 2.4877C7.12866 2.7286 7.32368 2.92411 7.56398 2.92411Z" fill="#130D3A"/>
<mask id="mask0_9_4570" style="mask-type:luminance" maskUnits="userSpaceOnUse" x="11" y="2" width="2" height="1">
<path fill-rule="evenodd" clip-rule="evenodd" d="M11.9731 2.02043H12.9041V2.95143H11.9731V2.02043Z" fill="white"/>
</mask>
<g mask="url(#mask0_9_4570)">
<path fill-rule="evenodd" clip-rule="evenodd" d="M12.4386 2.95143C12.5611 2.95143 12.6812 2.90186 12.7678 2.81504C12.8546 2.72846 12.9041 2.60859 12.9041 2.48593C12.9041 2.36327 12.8546 2.24341 12.7678 2.15682C12.6812 2.07001 12.5611 2.02043 12.4386 2.02043C12.316 2.02043 12.1961 2.07001 12.1093 2.15682C12.0227 2.24341 11.9731 2.36327 11.9731 2.48593C11.9731 2.60859 12.0227 2.72846 12.1093 2.81504C12.1961 2.90186 12.316 2.95143 12.4386 2.95143Z" fill="#130D3A"/>
</g>
<path fill-rule="evenodd" clip-rule="evenodd" d="M0.290542 1.03302H0.292719C0.533232 1.03302 0.728037 0.837506 0.728037 0.59661C0.728037 0.355713 0.533232 0.160203 0.292719 0.160203H0.290542C0.050247 0.160203 -0.144775 0.355713 -0.144775 0.59661C-0.144775 0.837506 0.050247 1.03302 0.290542 1.03302Z" fill="#130D3A"/>
<path fill-rule="evenodd" clip-rule="evenodd" d="M2.76459 1.03302C2.87937 1.03302 2.99196 0.986538 3.07313 0.905149C3.15452 0.823977 3.201 0.711384 3.201 0.59661C3.201 0.481617 3.15452 0.369242 3.07313 0.287852C2.99196 0.206681 2.87937 0.160203 2.76459 0.160203C2.6496 0.160203 2.53722 0.206681 2.45583 0.287852C2.37466 0.369242 2.32819 0.481617 2.32819 0.59661C2.32819 0.711384 2.37466 0.823977 2.45583 0.905149C2.53722 0.986538 2.6496 1.03302 2.76459 1.03302Z" fill="#130D3A"/>
<path fill-rule="evenodd" clip-rule="evenodd" d="M5.23755 1.03302C5.35255 1.03302 5.46492 0.986538 5.54631 0.905149C5.62748 0.823977 5.67396 0.711384 5.67396 0.59661C5.67396 0.481617 5.62748 0.369242 5.54631 0.287852C5.46492 0.206681 5.35255 0.160203 5.23755 0.160203C5.12278 0.160203 5.01019 0.206681 4.92901 0.287852C4.84762 0.369242 4.80115 0.481617 4.80115 0.59661C4.80115 0.711384 4.84762 0.823977 4.92901 0.905149C5.01019 0.986538 5.12278 1.03302 5.23755 1.03302Z" fill="#130D3A"/>
<path fill-rule="evenodd" clip-rule="evenodd" d="M10.0369 1.03302H10.0391C10.2796 1.03302 10.4744 0.837506 10.4744 0.59661C10.4744 0.355713 10.2796 0.160203 10.0391 0.160203H10.0369C9.79665 0.160203 9.60162 0.355713 9.60162 0.59661C9.60162 0.837506 9.79665 1.03302 10.0369 1.03302Z" fill="#130D3A"/>
<path fill-rule="evenodd" clip-rule="evenodd" d="M7.56398 1.03302H7.56616C7.80645 1.03302 8.00147 0.837506 8.00147 0.59661C8.00147 0.355713 7.80645 0.160203 7.56616 0.160203H7.56398C7.32368 0.160203 7.12866 0.355713 7.12866 0.59661C7.12866 0.837506 7.32368 1.03302 7.56398 1.03302Z" fill="#130D3A"/>
<mask id="mask1_9_4570" style="mask-type:luminance" maskUnits="userSpaceOnUse" x="11" y="0" width="2" height="2">
<path fill-rule="evenodd" clip-rule="evenodd" d="M11.9731 0.0792065H12.9041V1.01021H11.9731V0.0792065Z" fill="white"/>
</mask>
<g mask="url(#mask1_9_4570)">
<path fill-rule="evenodd" clip-rule="evenodd" d="M12.4386 1.01021C12.5611 1.01021 12.6812 0.96063 12.7678 0.873815C12.8546 0.787232 12.9041 0.667133 12.9041 0.544706C12.9041 0.422047 12.8546 0.302181 12.7678 0.215365C12.6812 0.128782 12.5611 0.0792065 12.4386 0.0792065C12.316 0.0792065 12.1961 0.128782 12.1093 0.215365C12.0227 0.302181 11.9731 0.422047 11.9731 0.544706C11.9731 0.667133 12.0227 0.787232 12.1093 0.873815C12.1961 0.96063 12.316 1.01021 12.4386 1.01021Z" fill="#130D3A"/>
</g>
<path fill-rule="evenodd" clip-rule="evenodd" d="M0.290542 4.8152H0.292719C0.533232 4.8152 0.728037 4.61969 0.728037 4.3788C0.728037 4.1379 0.533232 3.94239 0.292719 3.94239H0.290542C0.050247 3.94239 -0.144775 4.1379 -0.144775 4.3788C-0.144775 4.61969 0.050247 4.8152 0.290542 4.8152Z" fill="#130D3A"/>
<path fill-rule="evenodd" clip-rule="evenodd" d="M2.76459 4.8152C2.87937 4.8152 2.99196 4.76872 3.07313 4.68733C3.15452 4.60616 3.201 4.49379 3.201 4.3788C3.201 4.26402 3.15452 4.15143 3.07313 4.07026C2.99196 3.98887 2.87937 3.94239 2.76459 3.94239C2.6496 3.94239 2.53722 3.98887 2.45583 4.07026C2.37466 4.15143 2.32819 4.26402 2.32819 4.3788C2.32819 4.49379 2.37466 4.60616 2.45583 4.68733C2.53722 4.76872 2.6496 4.8152 2.76459 4.8152Z" fill="#130D3A"/>
<path fill-rule="evenodd" clip-rule="evenodd" d="M5.23755 4.8152C5.35255 4.8152 5.46492 4.76872 5.54631 4.68733C5.62748 4.60616 5.67396 4.49379 5.67396 4.3788C5.67396 4.26402 5.62748 4.15143 5.54631 4.07026C5.46492 3.98887 5.35255 3.94239 5.23755 3.94239C5.12278 3.94239 5.01019 3.98887 4.92901 4.07026C4.84762 4.15143 4.80115 4.26402 4.80115 4.3788C4.80115 4.49379 4.84762 4.60616 4.92901 4.68733C5.01019 4.76872 5.12278 4.8152 5.23755 4.8152Z" fill="#130D3A"/>
<path fill-rule="evenodd" clip-rule="evenodd" d="M10.0369 4.8152H10.0391C10.2796 4.8152 10.4744 4.61969 10.4744 4.3788C10.4744 4.1379 10.2796 3.94239 10.0391 3.94239H10.0369C9.79665 3.94239 9.60162 4.1379 9.60162 4.3788C9.60162 4.61969 9.79665 4.8152 10.0369 4.8152Z" fill="#130D3A"/>
<path fill-rule="evenodd" clip-rule="evenodd" d="M7.56398 4.8152H7.56616C7.80645 4.8152 8.00147 4.61969 8.00147 4.3788C8.00147 4.1379 7.80645 3.94239 7.56616 3.94239H7.56398C7.32368 3.94239 7.12866 4.1379 7.12866 4.3788C7.12866 4.61969 7.32368 4.8152 7.56398 4.8152Z" fill="#130D3A"/>
<mask id="mask2_9_4570" style="mask-type:luminance" maskUnits="userSpaceOnUse" x="11" y="3" width="2" height="2">
<path fill-rule="evenodd" clip-rule="evenodd" d="M11.9731 3.96164H12.9041V4.89264H11.9731V3.96164Z" fill="white"/>
</mask>
<g mask="url(#mask2_9_4570)">
<path fill-rule="evenodd" clip-rule="evenodd" d="M12.4386 4.89264C12.5611 4.89264 12.6812 4.84306 12.7678 4.75625C12.8546 4.66966 12.9041 4.5498 12.9041 4.42714C12.9041 4.30471 12.8546 4.18461 12.7678 4.09803C12.6812 4.01121 12.5611 3.96164 12.4386 3.96164C12.316 3.96164 12.1961 4.01121 12.1093 4.09803C12.0227 4.18461 11.9731 4.30471 11.9731 4.42714C11.9731 4.5498 12.0227 4.66966 12.1093 4.75625C12.1961 4.84306 12.316 4.89264 12.4386 4.89264Z" fill="#130D3A"/>
</g>
<path fill-rule="evenodd" clip-rule="evenodd" d="M0.290542 6.70629H0.292719C0.533232 6.70629 0.728037 6.51078 0.728037 6.26989C0.728037 6.02899 0.533232 5.83348 0.292719 5.83348H0.290542C0.050247 5.83348 -0.144775 6.02899 -0.144775 6.26989C-0.144775 6.51078 0.050247 6.70629 0.290542 6.70629Z" fill="#130D3A"/>
<path fill-rule="evenodd" clip-rule="evenodd" d="M2.76459 6.70629C2.87937 6.70629 2.99196 6.65982 3.07313 6.57843C3.15452 6.49726 3.201 6.38488 3.201 6.26989C3.201 6.1549 3.15452 6.04252 3.07313 5.96135C2.99196 5.87996 2.87937 5.83348 2.76459 5.83348C2.6496 5.83348 2.53722 5.87996 2.45583 5.96135C2.37466 6.04252 2.32819 6.1549 2.32819 6.26989C2.32819 6.38488 2.37466 6.49726 2.45583 6.57843C2.53722 6.65982 2.6496 6.70629 2.76459 6.70629Z" fill="#130D3A"/>
<path fill-rule="evenodd" clip-rule="evenodd" d="M5.23755 6.70629C5.35255 6.70629 5.46492 6.65982 5.54631 6.57843C5.62748 6.49726 5.67396 6.38488 5.67396 6.26989C5.67396 6.1549 5.62748 6.04252 5.54631 5.96135C5.46492 5.87996 5.35255 5.83348 5.23755 5.83348C5.12278 5.83348 5.01019 5.87996 4.92901 5.96135C4.84762 6.04252 4.80115 6.1549 4.80115 6.26989C4.80115 6.38488 4.84762 6.49726 4.92901 6.57843C5.01019 6.65982 5.12278 6.70629 5.23755 6.70629Z" fill="#130D3A"/>
<path fill-rule="evenodd" clip-rule="evenodd" d="M10.0369 6.70629H10.0391C10.2796 6.70629 10.4744 6.51078 10.4744 6.26989C10.4744 6.02899 10.2796 5.83348 10.0391 5.83348H10.0369C9.79665 5.83348 9.60162 6.02899 9.60162 6.26989C9.60162 6.51078 9.79665 6.70629 10.0369 6.70629Z" fill="#130D3A"/>
<path fill-rule="evenodd" clip-rule="evenodd" d="M7.56398 6.70629H7.56616C7.80645 6.70629 8.00147 6.51078 8.00147 6.26989C8.00147 6.02899 7.80645 5.83348 7.56616 5.83348H7.56398C7.32368 5.83348 7.12866 6.02899 7.12866 6.26989C7.12866 6.51078 7.32368 6.70629 7.56398 6.70629Z" fill="#130D3A"/>
<mask id="mask3_9_4570" style="mask-type:luminance" maskUnits="userSpaceOnUse" x="11" y="5" width="2" height="2">
<path fill-rule="evenodd" clip-rule="evenodd" d="M11.9731 5.90284H12.9041V6.83384H11.9731V5.90284Z" fill="white"/>
</mask>
<g mask="url(#mask3_9_4570)">
<path fill-rule="evenodd" clip-rule="evenodd" d="M12.4386 6.83384C12.5611 6.83384 12.6812 6.78427 12.7678 6.69745C12.8546 6.61087 12.9041 6.491 12.9041 6.36834C12.9041 6.24568 12.8546 6.12582 12.7678 6.03923C12.6812 5.95242 12.5611 5.90284 12.4386 5.90284C12.316 5.90284 12.1961 5.95242 12.1093 6.03923C12.0227 6.12582 11.9731 6.24568 11.9731 6.36834C11.9731 6.491 12.0227 6.61087 12.1093 6.69745C12.1961 6.78427 12.316 6.83384 12.4386 6.83384Z" fill="#130D3A"/>
</g>
<path fill-rule="evenodd" clip-rule="evenodd" d="M0.290542 8.74286H0.292719C0.533232 8.74286 0.728037 8.54735 0.728037 8.30645C0.728037 8.06555 0.533232 7.87004 0.292719 7.87004H0.290542C0.050247 7.87004 -0.144775 8.06555 -0.144775 8.30645C-0.144775 8.54735 0.050247 8.74286 0.290542 8.74286Z" fill="#130D3A"/>
<path fill-rule="evenodd" clip-rule="evenodd" d="M2.76459 8.74286C2.87937 8.74286 2.99196 8.69638 3.07313 8.61499C3.15452 8.53382 3.201 8.42144 3.201 8.30645C3.201 8.19168 3.15452 8.07908 3.07313 7.99791C2.99196 7.91652 2.87937 7.87004 2.76459 7.87004C2.6496 7.87004 2.53722 7.91652 2.45583 7.99791C2.37466 8.07908 2.32819 8.19168 2.32819 8.30645C2.32819 8.42144 2.37466 8.53382 2.45583 8.61499C2.53722 8.69638 2.6496 8.74286 2.76459 8.74286Z" fill="#130D3A"/>
<path fill-rule="evenodd" clip-rule="evenodd" d="M5.23755 8.74286C5.35255 8.74286 5.46492 8.69638 5.54631 8.61499C5.62748 8.53382 5.67396 8.42144 5.67396 8.30645C5.67396 8.19168 5.62748 8.07908 5.54631 7.99791C5.46492 7.91652 5.35255 7.87004 5.23755 7.87004C5.12278 7.87004 5.01019 7.91652 4.92901 7.99791C4.84762 8.07908 4.80115 8.19168 4.80115 8.30645C4.80115 8.42144 4.84762 8.53382 4.92901 8.61499C5.01019 8.69638 5.12278 8.74286 5.23755 8.74286Z" fill="#130D3A"/>
<path fill-rule="evenodd" clip-rule="evenodd" d="M10.0369 8.74286H10.0391C10.2796 8.74286 10.4744 8.54735 10.4744 8.30645C10.4744 8.06555 10.2796 7.87004 10.0391 7.87004H10.0369C9.79665 7.87004 9.60162 8.06555 9.60162 8.30645C9.60162 8.54735 9.79665 8.74286 10.0369 8.74286Z" fill="#130D3A"/>
<path fill-rule="evenodd" clip-rule="evenodd" d="M7.56398 8.74286H7.56616C7.80645 8.74286 8.00147 8.54735 8.00147 8.30645C8.00147 8.06555 7.80645 7.87004 7.56616 7.87004H7.56398C7.32368 7.87004 7.12866 8.06555 7.12866 8.30645C7.12866 8.54735 7.32368 8.74286 7.56398 8.74286Z" fill="#130D3A"/>
<mask id="mask4_9_4570" style="mask-type:luminance" maskUnits="userSpaceOnUse" x="11" y="7" width="2" height="2">
<path fill-rule="evenodd" clip-rule="evenodd" d="M11.9731 7.75679H12.9041V8.68779H11.9731V7.75679Z" fill="white"/>
</mask>
<g mask="url(#mask4_9_4570)">
<path fill-rule="evenodd" clip-rule="evenodd" d="M12.4386 8.68779C12.5611 8.68779 12.6812 8.63821 12.7678 8.5514C12.8546 8.46481 12.9041 8.34495 12.9041 8.22229C12.9041 8.09986 12.8546 7.97976 12.7678 7.89318C12.6812 7.80636 12.5611 7.75679 12.4386 7.75679C12.316 7.75679 12.1961 7.80636 12.1093 7.89318C12.0227 7.97976 11.9731 8.09986 11.9731 8.22229C11.9731 8.34495 12.0227 8.46481 12.1093 8.5514C12.1961 8.63821 12.316 8.68779 12.4386 8.68779Z" fill="#130D3A"/>
</g>
<path fill-rule="evenodd" clip-rule="evenodd" d="M0.290542 10.6339H0.292719C0.533232 10.6339 0.728037 10.4384 0.728037 10.1975C0.728037 9.95665 0.533232 9.76114 0.292719 9.76114H0.290542C0.050247 9.76114 -0.144775 9.95665 -0.144775 10.1975C-0.144775 10.4384 0.050247 10.6339 0.290542 10.6339Z" fill="#130D3A"/>
<path fill-rule="evenodd" clip-rule="evenodd" d="M2.76459 10.6339C2.87937 10.6339 2.99196 10.5875 3.07313 10.5063C3.15452 10.4249 3.201 10.3125 3.201 10.1975C3.201 10.0828 3.15452 9.97018 3.07313 9.889C2.99196 9.80761 2.87937 9.76114 2.76459 9.76114C2.6496 9.76114 2.53722 9.80761 2.45583 9.889C2.37466 9.97018 2.32819 10.0828 2.32819 10.1975C2.32819 10.3125 2.37466 10.4249 2.45583 10.5063C2.53722 10.5875 2.6496 10.6339 2.76459 10.6339Z" fill="#130D3A"/>
<path fill-rule="evenodd" clip-rule="evenodd" d="M5.23755 10.6339C5.35255 10.6339 5.46492 10.5875 5.54631 10.5063C5.62748 10.4249 5.67396 10.3125 5.67396 10.1975C5.67396 10.0828 5.62748 9.97018 5.54631 9.889C5.46492 9.80761 5.35255 9.76114 5.23755 9.76114C5.12278 9.76114 5.01019 9.80761 4.92901 9.889C4.84762 9.97018 4.80115 10.0828 4.80115 10.1975C4.80115 10.3125 4.84762 10.4249 4.92901 10.5063C5.01019 10.5875 5.12278 10.6339 5.23755 10.6339Z" fill="#130D3A"/>
<path fill-rule="evenodd" clip-rule="evenodd" d="M10.0369 10.6339H10.0391C10.2796 10.6339 10.4744 10.4384 10.4744 10.1975C10.4744 9.95665 10.2796 9.76114 10.0391 9.76114H10.0369C9.79665 9.76114 9.60162 9.95665 9.60162 10.1975C9.60162 10.4384 9.79665 10.6339 10.0369 10.6339Z" fill="#130D3A"/>
<path fill-rule="evenodd" clip-rule="evenodd" d="M7.56398 10.6339H7.56616C7.80645 10.6339 8.00147 10.4384 8.00147 10.1975C8.00147 9.95665 7.80645 9.76114 7.56616 9.76114H7.56398C7.32368 9.76114 7.12866 9.95665 7.12866 10.1975C7.12866 10.4384 7.32368 10.6339 7.56398 10.6339Z" fill="#130D3A"/>
<mask id="mask5_9_4570" style="mask-type:luminance" maskUnits="userSpaceOnUse" x="11" y="9" width="2" height="2">
<path fill-rule="evenodd" clip-rule="evenodd" d="M11.9731 9.69799H12.9041V10.629H11.9731V9.69799Z" fill="white"/>
</mask>
<g mask="url(#mask5_9_4570)">
<path fill-rule="evenodd" clip-rule="evenodd" d="M12.4386 10.629C12.5611 10.629 12.6812 10.5794 12.7678 10.4928C12.8546 10.406 12.9041 10.2862 12.9041 10.1635C12.9041 10.0411 12.8546 9.92097 12.7678 9.83438C12.6812 9.74757 12.5611 9.69799 12.4386 9.69799C12.316 9.69799 12.1961 9.74757 12.1093 9.83438C12.0227 9.92097 11.9731 10.0411 11.9731 10.1635C11.9731 10.2862 12.0227 10.406 12.1093 10.4928C12.1961 10.5794 12.316 10.629 12.4386 10.629Z" fill="#130D3A"/>
</g>
<path fill-rule="evenodd" clip-rule="evenodd" d="M0.290542 12.525H0.292719C0.533232 12.525 0.728037 12.3295 0.728037 12.0886C0.728037 11.8477 0.533232 11.6522 0.292719 11.6522H0.290542C0.050247 11.6522 -0.144775 11.8477 -0.144775 12.0886C-0.144775 12.3295 0.050247 12.525 0.290542 12.525Z" fill="#130D3A"/>
<path fill-rule="evenodd" clip-rule="evenodd" d="M2.76459 12.525C2.87937 12.525 2.99196 12.4786 3.07313 12.3972C3.15452 12.316 3.201 12.2036 3.201 12.0886C3.201 11.9739 3.15452 11.8613 3.07313 11.7801C2.99196 11.6987 2.87937 11.6522 2.76459 11.6522C2.6496 11.6522 2.53722 11.6987 2.45583 11.7801C2.37466 11.8613 2.32819 11.9739 2.32819 12.0886C2.32819 12.2036 2.37466 12.316 2.45583 12.3972C2.53722 12.4786 2.6496 12.525 2.76459 12.525Z" fill="#130D3A"/>
<path fill-rule="evenodd" clip-rule="evenodd" d="M5.23755 12.525C5.35255 12.525 5.46492 12.4786 5.54631 12.3972C5.62748 12.316 5.67396 12.2036 5.67396 12.0886C5.67396 11.9739 5.62748 11.8613 5.54631 11.7801C5.46492 11.6987 5.35255 11.6522 5.23755 11.6522C5.12278 11.6522 5.01019 11.6987 4.92901 11.7801C4.84762 11.8613 4.80115 11.9739 4.80115 12.0886C4.80115 12.2036 4.84762 12.316 4.92901 12.3972C5.01019 12.4786 5.12278 12.525 5.23755 12.525Z" fill="#130D3A"/>
<path fill-rule="evenodd" clip-rule="evenodd" d="M10.0369 12.525H10.0391C10.2796 12.525 10.4744 12.3295 10.4744 12.0886C10.4744 11.8477 10.2796 11.6522 10.0391 11.6522H10.0369C9.79665 11.6522 9.60162 11.8477 9.60162 12.0886C9.60162 12.3295 9.79665 12.525 10.0369 12.525Z" fill="#130D3A"/>
<path fill-rule="evenodd" clip-rule="evenodd" d="M7.56398 12.525H7.56616C7.80645 12.525 8.00147 12.3295 8.00147 12.0886C8.00147 11.8477 7.80645 11.6522 7.56616 11.6522H7.56398C7.32368 11.6522 7.12866 11.8477 7.12866 12.0886C7.12866 12.3295 7.32368 12.525 7.56398 12.525Z" fill="#130D3A"/>
<mask id="mask6_9_4570" style="mask-type:luminance" maskUnits="userSpaceOnUse" x="11" y="11" width="2" height="2">
<path fill-rule="evenodd" clip-rule="evenodd" d="M11.9731 11.6392H12.9041V12.5702H11.9731V11.6392Z" fill="white"/>
</mask>
<g mask="url(#mask6_9_4570)">
<path fill-rule="evenodd" clip-rule="evenodd" d="M12.4386 12.5702C12.5611 12.5702 12.6812 12.5206 12.7678 12.4338C12.8546 12.3472 12.9041 12.2274 12.9041 12.1047C12.9041 11.9823 12.8546 11.8622 12.7678 11.7756C12.6812 11.6888 12.5611 11.6392 12.4386 11.6392C12.316 11.6392 12.1961 11.6888 12.1093 11.7756C12.0227 11.8622 11.9731 11.9823 11.9731 12.1047C11.9731 12.2274 12.0227 12.3472 12.1093 12.4338C12.1961 12.5206 12.316 12.5702 12.4386 12.5702Z" fill="#130D3A"/>
</g>
<path fill-rule="evenodd" clip-rule="evenodd" d="M0.290542 14.4161H0.292719C0.533232 14.4161 0.728037 14.2208 0.728037 13.9797C0.728037 13.7388 0.533232 13.5433 0.292719 13.5433H0.290542C0.050247 13.5433 -0.144775 13.7388 -0.144775 13.9797C-0.144775 14.2208 0.050247 14.4161 0.290542 14.4161Z" fill="#130D3A"/>
<path fill-rule="evenodd" clip-rule="evenodd" d="M2.76459 14.4161C2.87937 14.4161 2.99196 14.3697 3.07313 14.2885C3.15452 14.2071 3.201 14.0947 3.201 13.9797C3.201 13.865 3.15452 13.7524 3.07313 13.6712C2.99196 13.5898 2.87937 13.5433 2.76459 13.5433C2.6496 13.5433 2.53722 13.5898 2.45583 13.6712C2.37466 13.7524 2.32819 13.865 2.32819 13.9797C2.32819 14.0947 2.37466 14.2071 2.45583 14.2885C2.53722 14.3697 2.6496 14.4161 2.76459 14.4161Z" fill="#130D3A"/>
<path fill-rule="evenodd" clip-rule="evenodd" d="M5.23755 14.4161C5.35255 14.4161 5.46492 14.3697 5.54631 14.2885C5.62748 14.2071 5.67396 14.0947 5.67396 13.9797C5.67396 13.865 5.62748 13.7524 5.54631 13.6712C5.46492 13.5898 5.35255 13.5433 5.23755 13.5433C5.12278 13.5433 5.01019 13.5898 4.92901 13.6712C4.84762 13.7524 4.80115 13.865 4.80115 13.9797C4.80115 14.0947 4.84762 14.2071 4.92901 14.2885C5.01019 14.3697 5.12278 14.4161 5.23755 14.4161Z" fill="#130D3A"/>
<path fill-rule="evenodd" clip-rule="evenodd" d="M10.0369 14.4161H10.0391C10.2796 14.4161 10.4744 14.2208 10.4744 13.9797C10.4744 13.7388 10.2796 13.5433 10.0391 13.5433H10.0369C9.79665 13.5433 9.60162 13.7388 9.60162 13.9797C9.60162 14.2208 9.79665 14.4161 10.0369 14.4161Z" fill="#130D3A"/>
<path fill-rule="evenodd" clip-rule="evenodd" d="M7.56398 14.4161H7.56616C7.80645 14.4161 8.00147 14.2208 8.00147 13.9797C8.00147 13.7388 7.80645 13.5433 7.56616 13.5433H7.56398C7.32368 13.5433 7.12866 13.7388 7.12866 13.9797C7.12866 14.2208 7.32368 14.4161 7.56398 14.4161Z" fill="#130D3A"/>
<mask id="mask7_9_4570" style="mask-type:luminance" maskUnits="userSpaceOnUse" x="11" y="13" width="2" height="2">
<path fill-rule="evenodd" clip-rule="evenodd" d="M11.9731 13.5804H12.9041V14.5114H11.9731V13.5804Z" fill="white"/>
</mask>
<g mask="url(#mask7_9_4570)">
<path fill-rule="evenodd" clip-rule="evenodd" d="M12.4386 14.5114C12.5611 14.5114 12.6812 14.4618 12.7678 14.3753C12.8546 14.2884 12.9041 14.1686 12.9041 14.0459C12.9041 13.9235 12.8546 13.8034 12.7678 13.7168C12.6812 13.63 12.5611 13.5804 12.4386 13.5804C12.316 13.5804 12.1961 13.63 12.1093 13.7168C12.0227 13.8034 11.9731 13.9235 11.9731 14.0459C11.9731 14.1686 12.0227 14.2884 12.1093 14.3753C12.1961 14.4618 12.316 14.5114 12.4386 14.5114Z" fill="#130D3A"/>
</g>
<mask id="mask8_9_4570" style="mask-type:luminance" maskUnits="userSpaceOnUse" x="-1" y="15" width="2" height="2">
<path fill-rule="evenodd" clip-rule="evenodd" d="M-0.145935 15.4345H0.787392V16.3072H-0.145935V15.4345Z" fill="white"/>
</mask>
<g mask="url(#mask8_9_4570)">
<path fill-rule="evenodd" clip-rule="evenodd" d="M0.319565 16.3073H0.321892C0.579081 16.3073 0.787392 16.1118 0.787392 15.8709C0.787392 15.6298 0.579081 15.4345 0.321892 15.4345H0.319565C0.0626089 15.4345 -0.145935 15.6298 -0.145935 15.8709C-0.145935 16.1118 0.0626089 16.3073 0.319565 16.3073Z" fill="#130D3A"/>
</g>
<mask id="mask9_9_4570" style="mask-type:luminance" maskUnits="userSpaceOnUse" x="2" y="15" width="2" height="2">
<path fill-rule="evenodd" clip-rule="evenodd" d="M2.25562 15.4345H3.18661V16.3072H2.25562V15.4345Z" fill="white"/>
</mask>
<g mask="url(#mask9_9_4570)">
<path fill-rule="evenodd" clip-rule="evenodd" d="M2.72112 16.3073C2.84354 16.3073 2.96364 16.2608 3.05022 16.1794C3.13704 16.0982 3.18661 15.9856 3.18661 15.8709C3.18661 15.7559 3.13704 15.6435 3.05022 15.5621C2.96364 15.4809 2.84354 15.4345 2.72112 15.4345C2.59846 15.4345 2.47859 15.4809 2.39177 15.5621C2.30519 15.6435 2.25562 15.7559 2.25562 15.8709C2.25562 15.9856 2.30519 16.0982 2.39177 16.1794C2.47859 16.2608 2.59846 16.3073 2.72112 16.3073Z" fill="#130D3A"/>
</g>
<mask id="mask10_9_4570" style="mask-type:luminance" maskUnits="userSpaceOnUse" x="4" y="15" width="2" height="2">
<path fill-rule="evenodd" clip-rule="evenodd" d="M4.71356 15.4344H5.64456V16.3072H4.71356V15.4344Z" fill="white"/>
</mask>
<g mask="url(#mask10_9_4570)">
<path fill-rule="evenodd" clip-rule="evenodd" d="M5.17906 16.3072C5.30172 16.3072 5.42159 16.2607 5.5084 16.1793C5.59499 16.0982 5.64456 15.9856 5.64456 15.8708C5.64456 15.7558 5.59499 15.6434 5.5084 15.562C5.42159 15.4809 5.30172 15.4344 5.17906 15.4344C5.05664 15.4344 4.93654 15.4809 4.84995 15.562C4.76314 15.6434 4.71356 15.7558 4.71356 15.8708C4.71356 15.9856 4.76314 16.0982 4.84995 16.1793C4.93654 16.2607 5.05664 16.3072 5.17906 16.3072Z" fill="#130D3A"/>
</g>
<mask id="mask11_9_4570" style="mask-type:luminance" maskUnits="userSpaceOnUse" x="9" y="15" width="2" height="2">
<path fill-rule="evenodd" clip-rule="evenodd" d="M9.51349 15.4345H10.4468V16.3072H9.51349V15.4345Z" fill="white"/>
</mask>
<g mask="url(#mask11_9_4570)">
<path fill-rule="evenodd" clip-rule="evenodd" d="M9.97899 16.3073H9.98132C10.2385 16.3073 10.4468 16.1118 10.4468 15.8709C10.4468 15.6298 10.2385 15.4345 9.98132 15.4345H9.97899C9.72203 15.4345 9.51349 15.6298 9.51349 15.8709C9.51349 16.1118 9.72203 16.3073 9.97899 16.3073Z" fill="#130D3A"/>
</g>
<mask id="mask12_9_4570" style="mask-type:luminance" maskUnits="userSpaceOnUse" x="7" y="15" width="2" height="2">
<path fill-rule="evenodd" clip-rule="evenodd" d="M7.11346 15.4344H8.04679V16.3072H7.11346V15.4344Z" fill="white"/>
</mask>
<g mask="url(#mask12_9_4570)">
<path fill-rule="evenodd" clip-rule="evenodd" d="M7.57896 16.3072H7.58129C7.83825 16.3072 8.04679 16.1117 8.04679 15.8708C8.04679 15.6297 7.83825 15.4344 7.58129 15.4344H7.57896C7.32201 15.4344 7.11346 15.6297 7.11346 15.8708C7.11346 16.1117 7.32201 16.3072 7.57896 16.3072Z" fill="#130D3A"/>
</g>
<mask id="mask13_9_4570" style="mask-type:luminance" maskUnits="userSpaceOnUse" x="11" y="15" width="2" height="2">
<path fill-rule="evenodd" clip-rule="evenodd" d="M11.9731 15.4345H12.9041V16.3072H11.9731V15.4345Z" fill="white"/>
</mask>
<g mask="url(#mask13_9_4570)">
<path fill-rule="evenodd" clip-rule="evenodd" d="M12.4386 16.3073C12.5611 16.3073 12.6812 16.2608 12.7678 16.1794C12.8546 16.0982 12.9041 15.9856 12.9041 15.8709C12.9041 15.7559 12.8546 15.6435 12.7678 15.5621C12.6812 15.4809 12.5611 15.4345 12.4386 15.4345C12.316 15.4345 12.1961 15.4809 12.1093 15.5621C12.0227 15.6435 11.9731 15.7559 11.9731 15.8709C11.9731 15.9856 12.0227 16.0982 12.1093 16.1794C12.1961 16.2608 12.316 16.3073 12.4386 16.3073Z" fill="#130D3A"/>
</g>
</svg>
