<svg width="13" height="13" viewBox="0 0 13 13" fill="none" xmlns="http://www.w3.org/2000/svg">
<rect opacity="0.1" x="0.787415" y="0.653893" width="11.492" height="11.492" rx="2.18203" fill="#473BF0"/>
<path fill-rule="evenodd" clip-rule="evenodd" d="M5.15161 5.26209C5.15161 4.51502 5.70779 3.70869 6.6063 3.70869C7.50481 3.70869 8.06099 4.51502 8.06099 5.26209C8.06099 6.36918 7.30588 7.05447 6.6063 7.05447C5.90672 7.05447 5.15161 6.36918 5.15161 5.26209ZM5.39933 5.38797C5.45194 6.27269 6.04957 6.81542 6.60635 6.81542C7.16313 6.81542 7.76065 6.2728 7.8135 5.38832C7.45286 5.34005 7.11586 5.18794 6.84541 4.94943C6.51131 5.24505 6.08521 5.40673 5.63305 5.40673C5.55583 5.40673 5.478 5.3992 5.39933 5.38797Z" fill="#473BF0"/>
<path opacity="0.5" d="M8.78505 7.66292L7.52456 6.909C7.22914 7.16325 6.87601 7.30306 6.53356 7.30306C6.1911 7.30306 5.83797 7.16325 5.54255 6.909L4.28206 7.66292C4.10059 7.77144 3.98785 7.96998 3.98785 8.18096V9.11566C3.98785 9.18249 4.04216 9.2365 4.10908 9.2365H6.41233V8.0281C6.41233 7.96128 6.46652 7.90726 6.53356 7.90726C6.60059 7.90726 6.65478 7.96128 6.65478 8.0281V9.2365H8.95803C9.02495 9.2365 9.07926 9.18249 9.07926 9.11566V8.18096C9.07926 7.96998 8.96652 7.77144 8.78505 7.66292Z" fill="#473BF0"/>
</svg>
