<svg width="13" height="13" viewBox="0 0 13 13" fill="none" xmlns="http://www.w3.org/2000/svg">
<rect opacity="0.1" x="0.55719" y="0.784115" width="11.492" height="11.492" rx="2.18203" fill="#161C2D"/>
<path d="M7.48721 5.49135C7.17955 5.185 6.77762 5.03182 6.37569 5.03182V6.60288L5.26416 7.71441C5.87818 8.32843 6.87188 8.32843 7.4859 7.71441C8.09993 7.10038 8.09993 6.10538 7.48721 5.49135Z" fill="#161C2D"/>
<path opacity="0.5" fill-rule="evenodd" clip-rule="evenodd" d="M3.75732 6.60281C3.75732 5.15613 4.92907 3.98438 6.37576 3.98438C7.82245 3.98438 8.9942 5.15613 8.9942 6.60281C8.9942 8.04819 7.82245 9.22125 6.37576 9.22125C4.92907 9.22125 3.75732 8.0495 3.75732 6.60281ZM4.28099 6.60288C4.28099 7.76023 5.21839 8.69763 6.37574 8.69763C7.53309 8.69763 8.47049 7.76023 8.47049 6.60288C8.47049 5.44553 7.53309 4.50813 6.37574 4.50813C5.21839 4.50813 4.28099 5.44553 4.28099 6.60288Z" fill="#161C2D"/>
</svg>
