<svg width="13" height="13" viewBox="0 0 13 13" fill="none" xmlns="http://www.w3.org/2000/svg">
<rect opacity="0.1" x="0.787415" y="0.784115" width="11.492" height="11.492" rx="2.18203" fill="#68D585"/>
<path opacity="0.5" d="M8.95764 6.45737C8.73904 7.44031 7.68245 8.18828 6.4149 8.18828C6.23519 8.18828 6.05581 8.17208 5.87891 8.14135C6.31352 8.51766 6.98641 8.70748 7.68178 8.60464L8.61249 9.06416C8.62834 9.07192 8.64553 9.07581 8.66273 9.07581C8.6833 9.07581 8.70375 9.07026 8.72185 9.05928C8.75489 9.03909 8.77512 9.00336 8.77512 8.96487V8.11849C9.06543 7.85845 9.22469 7.53051 9.22469 7.18981C9.22469 6.92932 9.13061 6.6777 8.95764 6.45737Z" fill="#68D585"/>
<path d="M6.38821 4.12984C5.06465 4.12984 3.98798 4.97645 3.98798 6.01711C3.98798 6.4171 4.14582 6.79844 4.44516 7.12282V8.23742C4.44516 8.27594 4.46574 8.31158 4.49934 8.3319C4.51774 8.34289 4.53854 8.34844 4.55946 8.34844C4.57695 8.34844 4.59443 8.34455 4.61055 8.33678L5.67694 7.81889C5.90953 7.87562 6.14853 7.90437 6.38821 7.90437C7.71177 7.90437 8.78844 7.05777 8.78844 6.01711C8.78844 4.97645 7.71177 4.12984 6.38821 4.12984Z" fill="#68D585"/>
</svg>
