<svg width="19" height="3" viewBox="0 0 19 3" fill="none" xmlns="http://www.w3.org/2000/svg">
<path d="M1.7953 0.223882L2.23119 1.062L3.20558 1.19643C3.2308 1.19998 3.25172 1.21673 3.25958 1.23968C3.26744 1.26263 3.26087 1.2878 3.24264 1.30466L2.5377 1.9569L2.70414 2.87806C2.70851 2.90182 2.69823 2.92586 2.67762 2.94006C2.65701 2.95425 2.62966 2.95613 2.6071 2.9449L1.73553 2.51008L0.863954 2.94503C0.841407 2.9563 0.814044 2.95445 0.793423 2.94026C0.772802 2.92607 0.76252 2.90201 0.76692 2.87825L0.933358 1.9569L0.228221 1.30466C0.209984 1.2878 0.203419 1.26263 0.211276 1.23968C0.219133 1.21673 0.240056 1.19998 0.265281 1.19643L1.23967 1.062L1.67575 0.223882C1.68685 0.202211 1.71007 0.188446 1.73553 0.188446C1.76099 0.188446 1.78421 0.202211 1.7953 0.223882Z" fill="#FCAD38"/>
<path d="M5.502 0.223791L5.91714 1.06191L6.84512 1.19634C6.86915 1.19988 6.88907 1.21664 6.89656 1.23959C6.90404 1.26254 6.89779 1.28771 6.88042 1.30457L6.20905 1.95681L6.36756 2.87797C6.37173 2.90173 6.36194 2.92577 6.34231 2.93996C6.32268 2.95416 6.29664 2.95604 6.27515 2.94481L5.44508 2.50998L4.61501 2.94494C4.59353 2.95621 4.56747 2.95436 4.54783 2.94016C4.52819 2.92597 4.5184 2.90192 4.52259 2.87816L4.68111 1.95681L4.00955 1.30457C3.99218 1.28771 3.98593 1.26254 3.99341 1.23959C4.00089 1.21664 4.02082 1.19988 4.04484 1.19634L4.97283 1.06191L5.38815 0.223791C5.39872 0.202119 5.42083 0.188354 5.44508 0.188354C5.46932 0.188354 5.49144 0.202119 5.502 0.223791Z" fill="#FCAD38"/>
<path d="M9.21431 0.223791L9.6502 1.06191L10.6246 1.19634C10.6498 1.19988 10.6707 1.21664 10.6786 1.23959C10.6864 1.26254 10.6799 1.28771 10.6616 1.30457L9.95671 1.95681L10.1231 2.87797C10.1275 2.90173 10.1172 2.92577 10.0966 2.93996C10.076 2.95416 10.0487 2.95604 10.0261 2.94481L9.15453 2.50998L8.28296 2.94494C8.26041 2.95621 8.23305 2.95436 8.21243 2.94016C8.19181 2.92597 8.18153 2.90192 8.18593 2.87816L8.35236 1.95681L7.64723 1.30457C7.62899 1.28771 7.62243 1.26254 7.63028 1.23959C7.63814 1.21664 7.65906 1.19988 7.68429 1.19634L8.65867 1.06191L9.09476 0.223791C9.10586 0.202119 9.12908 0.188354 9.15453 0.188354C9.17999 0.188354 9.20321 0.202119 9.21431 0.223791Z" fill="#FCAD38"/>
<path d="M12.9209 0.223791L13.336 1.06191L14.264 1.19634C14.288 1.19988 14.308 1.21664 14.3154 1.23959C14.3229 1.26254 14.3167 1.28771 14.2993 1.30457L13.6279 1.95681L13.7864 2.87797C13.7906 2.90173 13.7808 2.92577 13.7612 2.93996C13.7416 2.95416 13.7155 2.95604 13.694 2.94481L12.864 2.50998L12.0339 2.94494C12.0124 2.95621 11.9864 2.95436 11.9667 2.94016C11.9471 2.92597 11.9373 2.90192 11.9415 2.87816L12.1 1.95681L11.4284 1.30457C11.4111 1.28771 11.4048 1.26254 11.4123 1.23959C11.4198 1.21664 11.4397 1.19988 11.4637 1.19634L12.3917 1.06191L12.807 0.223791C12.8176 0.202119 12.8397 0.188354 12.864 0.188354C12.8882 0.188354 12.9103 0.202119 12.9209 0.223791Z" fill="#FCAD38"/>
<path d="M16.6332 0.223791L17.0691 1.06191L18.0435 1.19634C18.0687 1.19988 18.0896 1.21664 18.0975 1.23959C18.1053 1.26254 18.0988 1.28771 18.0805 1.30457L17.3756 1.95681L17.542 2.87797C17.5464 2.90173 17.5361 2.92577 17.5155 2.93996C17.4949 2.95416 17.4676 2.95604 17.445 2.94481L16.5734 2.50998L15.7018 2.94494C15.6793 2.95621 15.6519 2.95436 15.6313 2.94016C15.6107 2.92597 15.6004 2.90192 15.6048 2.87816L15.7712 1.95681L15.0661 1.30457C15.0479 1.28771 15.0413 1.26254 15.0492 1.23959C15.057 1.21664 15.0779 1.19988 15.1032 1.19634L16.0776 1.06191L16.5136 0.223791C16.5247 0.202119 16.548 0.188354 16.5734 0.188354C16.5989 0.188354 16.6221 0.202119 16.6332 0.223791Z" fill="#FCAD38"/>
</svg>
