<svg width="4" height="3" viewBox="0 0 4 3" fill="none" xmlns="http://www.w3.org/2000/svg">
<path d="M3.40435 0.0856934H1.00412C0.943866 0.0856934 0.89502 0.13454 0.89502 0.194795V2.59503C0.89502 2.65528 0.943866 2.70413 1.00412 2.70413H2.29361V1.69013H1.95238V1.29496H2.29361V1.00353C2.29361 0.665328 2.50017 0.481171 2.80187 0.481171C2.94639 0.481171 3.07059 0.491931 3.10679 0.49674V0.850181L2.89754 0.850276C2.73346 0.850276 2.70169 0.928244 2.70169 1.04266V1.29496H3.09301L3.04206 1.69013H2.70169V2.70413H3.40435C3.46461 2.70413 3.51346 2.65528 3.51346 2.59503V0.194795C3.51346 0.13454 3.46461 0.0856934 3.40435 0.0856934Z" fill="#7D818D"/>
</svg>
