<svg width="4" height="3" viewBox="0 0 4 3" fill="none" xmlns="http://www.w3.org/2000/svg">
<path fill-rule="evenodd" clip-rule="evenodd" d="M1.62863 0.0935487C1.76828 0.0872208 1.81285 0.0856934 2.16841 0.0856934C2.52397 0.0856934 2.56854 0.0872208 2.70819 0.0935487C2.92105 0.103259 3.10788 0.155409 3.2579 0.305424C3.40797 0.455493 3.46006 0.642384 3.46977 0.855132C3.4761 0.994782 3.47763 1.03935 3.47763 1.39491C3.47763 1.75047 3.4761 1.79504 3.46977 1.93469C3.46006 2.14755 3.40791 2.33438 3.2579 2.4844C3.10783 2.63447 2.92088 2.68656 2.70819 2.69627C2.56854 2.7026 2.52397 2.70413 2.16841 2.70413C1.81285 2.70413 1.76828 2.7026 1.62863 2.69627C1.41577 2.68656 1.22894 2.63441 1.07892 2.4844C0.928853 2.33433 0.876757 2.14744 0.867047 1.93469C0.860719 1.79504 0.859192 1.75047 0.859192 1.39491C0.859192 1.03935 0.860719 0.994782 0.867047 0.855132C0.876757 0.642275 0.928908 0.455438 1.07892 0.305424C1.22899 0.155355 1.41588 0.103259 1.62863 0.0935487ZM2.69747 0.329196C2.5594 0.322868 2.518 0.321559 2.16843 0.321559C1.81887 0.321559 1.77747 0.322923 1.6394 0.329196C1.49042 0.336015 1.35214 0.365854 1.24576 0.472228C1.13939 0.578602 1.10955 0.716888 1.10273 0.865867C1.0964 1.00393 1.09509 1.04534 1.09509 1.3949C1.09509 1.74446 1.09646 1.78587 1.10273 1.92393C1.10955 2.07291 1.13939 2.2112 1.24576 2.31757C1.35214 2.42395 1.49042 2.45378 1.6394 2.4606C1.77741 2.46693 1.81882 2.46824 2.16843 2.46824C2.51805 2.46824 2.55945 2.46688 2.69747 2.4606C2.84645 2.45378 2.98473 2.42395 3.09111 2.31757C3.19748 2.2112 3.22732 2.07291 3.23414 1.92393C3.24047 1.78587 3.24178 1.74446 3.24178 1.3949C3.24178 1.04534 3.24041 1.00393 3.23414 0.865867C3.22732 0.716888 3.19748 0.578602 3.09111 0.472228C2.98473 0.365854 2.84645 0.336015 2.69747 0.329196Z" fill="#7D818D"/>
<path fill-rule="evenodd" clip-rule="evenodd" d="M1.57336 1.45441C1.57336 1.0929 1.86641 0.799805 2.22797 0.799805C2.58954 0.799805 2.88258 1.09285 2.88258 1.45441C2.88258 1.81598 2.58954 2.10902 2.22797 2.10902C1.86641 2.10902 1.57336 1.81593 1.57336 1.45441ZM1.80301 1.45441C1.80301 1.68908 1.99327 1.87934 2.22794 1.87934C2.46261 1.87934 2.65288 1.68908 2.65288 1.45441C2.65288 1.21974 2.46261 1.02948 2.22794 1.02948C1.99327 1.02948 1.80301 1.21974 1.80301 1.45441Z" fill="#7D818D"/>
<circle cx="2.82306" cy="0.740297" r="0.17853" fill="#7D818D"/>
</svg>
