<svg width="4" height="3" viewBox="0 0 4 3" fill="none" xmlns="http://www.w3.org/2000/svg">
<path fill-rule="evenodd" clip-rule="evenodd" d="M1.07797 0.0856934H3.47821C3.53821 0.0856934 3.58731 0.134789 3.58731 0.194795V2.59503C3.58731 2.65503 3.53821 2.70413 3.47821 2.70413H1.07797C1.01797 2.70413 0.968872 2.65503 0.968872 2.59503V0.194795C0.968872 0.134789 1.01797 0.0856934 1.07797 0.0856934ZM1.35621 2.3168H1.74352V1.06759H1.35621V2.3168ZM1.55259 0.898487C1.42712 0.898487 1.32893 0.800295 1.32893 0.674829C1.32893 0.549362 1.42712 0.45117 1.55259 0.45117C1.67805 0.45117 1.77625 0.549362 1.77625 0.674829C1.77625 0.79484 1.67805 0.898487 1.55259 0.898487ZM2.81272 2.31681H3.19457V1.62947C3.19457 1.29125 3.12365 1.03487 2.73089 1.03487C2.54542 1.03487 2.41449 1.13851 2.3654 1.2367H2.35994V1.0676H1.989V2.31681H2.37631V1.70038C2.37631 1.53673 2.40904 1.37854 2.61088 1.37854C2.81272 1.37854 2.81272 1.56401 2.81272 1.71129V2.31681Z" fill="#7D818D"/>
</svg>
