<svg width="4" height="3" viewBox="0 0 4 3" fill="none" xmlns="http://www.w3.org/2000/svg">
<path fill-rule="evenodd" clip-rule="evenodd" d="M3.40375 0.629657C3.31102 0.674648 3.21313 0.702767 3.11009 0.719638C3.21313 0.652153 3.29556 0.545301 3.33163 0.415953C3.23374 0.477815 3.12554 0.522805 3.00705 0.550924C2.91431 0.444072 2.78036 0.376587 2.6361 0.376587C2.35789 0.376587 2.13121 0.624034 2.13121 0.927718C2.13121 0.972709 2.13636 1.01208 2.14666 1.05144C1.72935 1.02895 1.35325 0.809619 1.1008 0.472191C1.05959 0.556548 1.03383 0.646529 1.03383 0.747757C1.03383 0.938966 1.12141 1.10768 1.26052 1.20891C1.17808 1.20328 1.1008 1.18079 1.02867 1.14142V1.14705C1.02867 1.41699 1.20384 1.64194 1.43568 1.69255C1.39447 1.7038 1.3481 1.70942 1.30173 1.70942C1.27082 1.70942 1.23476 1.7038 1.20384 1.69818C1.27082 1.91751 1.45629 2.0806 1.67783 2.0806C1.50266 2.22681 1.28628 2.31679 1.04928 2.31679C1.00807 2.31679 0.96685 2.31679 0.930786 2.31117C1.15747 2.46864 1.42023 2.55862 1.70874 2.55862C2.64126 2.55862 3.1513 1.71505 3.1513 0.983956C3.1513 0.961461 3.1513 0.933342 3.1513 0.910847C3.24919 0.837738 3.33678 0.742133 3.40375 0.629657Z" fill="#68D585"/>
</svg>
