<svg width="18" height="20" viewBox="0 0 18 20" fill="none" xmlns="http://www.w3.org/2000/svg">
<path d="M12.8477 4.50262C12.6514 4.30621 12.6514 3.9886 12.8477 3.79219L13.0868 3.55395C13.2839 3.35832 13.6026 3.35832 13.7997 3.55395C13.9953 3.75043 13.9953 4.0673 13.7997 4.26378L13.56 4.50262C13.3629 4.69752 13.0449 4.69752 12.8477 4.50262Z" fill="#83FFA3"/>
<path opacity="0.4" d="M12.8477 4.50262C12.6514 4.30621 12.6514 3.9886 12.8477 3.79219L13.0868 3.55395C13.2839 3.35832 13.6026 3.35832 13.7997 3.55395C13.9953 3.75043 13.9953 4.0673 13.7997 4.26378L13.56 4.50262C13.3629 4.69752 13.0449 4.69752 12.8477 4.50262Z" fill="white"/>
<path d="M13.1843 4.16911C12.9308 3.9159 12.9308 3.50603 13.1843 3.25281L13.6526 2.78611C13.9067 2.53354 14.3181 2.53354 14.5722 2.78611C14.826 3.03919 14.826 3.44933 14.5722 3.70241L14.1026 4.16911C13.8483 4.42021 13.4385 4.42021 13.1843 4.16911Z" fill="#83FFA3"/>
<path d="M13.8371 3.51608C13.4038 3.08648 12.7035 3.08648 12.2702 3.51608L13.8371 5.07806C14.268 4.64591 14.268 3.94823 13.8371 3.51608Z" fill="#83FFA3"/>
<path d="M14.4729 6.54476C14.4204 6.54476 14.3779 6.50237 14.3779 6.45008C14.3779 6.39778 14.4204 6.35539 14.4729 6.35539C15.4209 6.35539 16.1894 5.58961 16.1894 4.64497C16.1894 3.70033 15.4209 2.93455 14.4729 2.93455C14.4372 2.93741 14.403 2.92007 14.3843 2.88969C14.3656 2.85931 14.3656 2.82103 14.3843 2.79065C14.403 2.76027 14.4372 2.74293 14.4729 2.74579C15.1621 2.73347 15.8043 3.0928 16.1525 3.68556C16.5007 4.27833 16.5007 5.01222 16.1525 5.60499C15.8043 6.19775 15.1621 6.55708 14.4729 6.54476Z" fill="#83FFA3"/>
<path fill-rule="evenodd" clip-rule="evenodd" d="M14.6151 9.13849L16.784 19.401L16.8913 19.398L16.8711 19.6924H11.9189L11.9434 19.3314H12.2775L12.2732 19.398H13.7697L15.4513 14.544L14.3251 9.21729L14.6151 9.13849ZM16.4773 19.4009L15.4964 14.7504L13.8829 19.4009H16.4773Z" fill="#83FFA3"/>
<path fill-rule="evenodd" clip-rule="evenodd" d="M3.81752 9.14154L5.98403 19.401H6.09131L6.07108 19.6955H1.11951L1.14342 19.3344H1.47814L1.47323 19.401H2.97152L4.65311 14.5471L3.52755 9.22034L3.81752 9.14154ZM5.67771 19.4011L4.69684 14.7505L3.08207 19.4011H5.67771Z" fill="#83FFA3"/>
<path d="M15.6046 14.235L15.3256 15.0395H4.55255L4.83087 14.235H15.6046Z" fill="#83FFA3"/>
<path d="M15.1803 14.8415L15.3256 15.0394H4.55252L4.40723 14.8415H15.1803Z" fill="#83FFA3"/>
<path opacity="0.2" d="M15.1803 14.8415L15.3256 15.0394H4.55252L4.40723 14.8415H15.1803Z" fill="black"/>
<path d="M13.4472 12.9943H0.288802L0.0981445 12.8049L17.0372 5.62479L17.2273 5.81415L13.4472 12.9943Z" fill="#83FFA3"/>
<path opacity="0.4" d="M13.4472 12.9943H0.288802L0.0981445 12.8049L17.0372 5.62479L17.2273 5.81415L13.4472 12.9943Z" fill="black"/>
<path d="M1.96281 8.80315L2.32794 8.10898L2.38224 8.13734L2.01711 8.83151L1.96281 8.80315Z" fill="#83FFA3"/>
<path d="M1.66901 9.36116L1.84261 9.03111L1.89691 9.05947L1.72331 9.38951L1.66901 9.36116Z" fill="#83FFA3"/>
<path d="M13.2566 12.8049H0.0981445L3.8788 5.62479H17.0372L13.2566 12.8049Z" fill="#83FFA3"/>
<path opacity="0.3" d="M11.9336 11.6534L2.62085 11.6864L5.37588 6.55145C7.58285 6.70906 10.8884 6.72372 14.5041 6.65225L11.9336 11.6534Z" fill="black"/>
<path d="M11.7994 11.6864H2.56812L5.22016 6.64918C8.06347 6.75425 11.1085 6.68706 14.3883 6.59665C13.8801 7.86603 12.958 9.70778 11.7994 11.6864Z" fill="white"/>
<g opacity="0.6">
<path d="M4.19383 11.0926C5.0615 11.0877 5.92916 11.0837 6.79683 11.0804L9.58925 11.0676L10.9913 11.0609C11.0029 11.059 11.0114 11.049 11.0114 11.0373C11.0114 11.0257 11.0029 11.0157 10.9913 11.0138L8.3883 11.026L5.59587 11.0383L4.19383 11.045C4.18063 11.045 4.16992 11.0556 4.16992 11.0688C4.16992 11.082 4.18063 11.0926 4.19383 11.0926Z" fill="#83FFA3"/>
<path d="M10.8767 11.1385C11.433 10.0837 11.9943 9.03138 12.5608 7.9815C12.7242 7.67933 12.8877 7.37715 13.0512 7.07498C13.0659 7.0481 13.0248 7.02428 13.0101 7.05054C12.4379 8.10001 11.8725 9.15233 11.3138 10.2075C11.1532 10.5101 10.9934 10.8125 10.8344 11.1146C10.8203 11.1415 10.8608 11.1653 10.8755 11.1385H10.8767Z" fill="#83FFA3"/>
<path d="M13.0794 7.09695C12.2076 7.10184 11.3361 7.10591 10.4647 7.10917L7.63918 7.122L6.24144 7.12872C6.22823 7.12872 6.21753 7.13939 6.21753 7.15254C6.21753 7.1657 6.22823 7.17637 6.24144 7.17637C7.11319 7.17148 7.98474 7.16741 8.85608 7.16415L11.6816 7.15132L13.0794 7.1446C13.0926 7.1446 13.1033 7.13394 13.1033 7.12078C13.1033 7.10762 13.0926 7.09695 13.0794 7.09695Z" fill="#83FFA3"/>
<path d="M6.40634 7.01146C5.84479 8.07803 5.27732 9.14196 4.70391 10.2032C4.54043 10.5074 4.37573 10.8112 4.2098 11.1146C4.19508 11.1415 4.23616 11.1653 4.25087 11.1385C4.82795 10.0796 5.40013 9.01591 5.9674 7.94731C6.12843 7.6435 6.28905 7.3395 6.44926 7.03529C6.46397 7.00841 6.4229 6.98458 6.40818 7.01146H6.40634Z" fill="#83FFA3"/>
<path d="M7.33448 10.5832L8.29267 8.7005L8.55076 8.19471C8.56486 8.16783 8.52379 8.14339 8.50969 8.17088L7.52084 10.1073L7.29095 10.5563C7.27746 10.5838 7.31854 10.6076 7.33203 10.5801L7.33448 10.5832Z" fill="#83FFA3"/>
<path d="M5.06011 10.5911L5.61186 9.50991C5.62534 9.48242 5.58427 9.4586 5.57078 9.48547L5.01904 10.5673C5.00555 10.5948 5.04663 10.6186 5.06011 10.5911Z" fill="#83FFA3"/>
<path d="M10.4997 10.5832C10.9589 9.75793 11.3641 8.90394 11.7993 8.06583C11.906 7.86058 12.0139 7.65533 12.1267 7.45496C12.1414 7.42809 12.1004 7.40426 12.0856 7.43114C11.6265 8.25581 11.2206 9.11041 10.786 9.9479C10.6793 10.1538 10.5714 10.3584 10.4586 10.5588C10.4439 10.585 10.4844 10.6095 10.4997 10.5826V10.5832Z" fill="#83FFA3"/>
<path d="M7.98062 10.577C8.3975 9.76031 8.81866 8.94481 9.2343 8.12747L9.37531 7.85014L9.45132 7.70048L9.48872 7.62595C9.49914 7.60579 9.51508 7.54959 9.53592 7.5386C9.56663 7.53431 9.59779 7.53431 9.62849 7.5386H9.74559H9.99632C10.3695 7.53493 10.7424 7.53188 11.1151 7.52944C11.4922 7.52944 11.8686 7.52638 12.2456 7.5331C12.2572 7.53124 12.2657 7.52127 12.2657 7.50958C12.2657 7.49789 12.2572 7.48793 12.2456 7.48606C11.3364 7.47018 10.4267 7.48606 9.51814 7.49645C9.50962 7.49634 9.50167 7.50076 9.4973 7.50806C8.98357 8.52759 8.4588 9.54163 7.93955 10.5581C7.92545 10.5856 7.96652 10.6094 7.98062 10.5819V10.577Z" fill="#83FFA3"/>
<path d="M10.5033 10.5655C10.2796 9.76217 10.0129 8.9711 9.75663 8.1782C9.68429 7.95503 9.61236 7.73207 9.54084 7.5093C9.53164 7.47998 9.48567 7.4922 9.49486 7.52152C9.75418 8.33458 10.0264 9.14398 10.2759 9.96009C10.3372 10.1653 10.3985 10.3712 10.4598 10.5783C10.4639 10.5903 10.4767 10.597 10.4889 10.5936C10.5011 10.5902 10.5085 10.5778 10.5058 10.5655H10.5033Z" fill="#83FFA3"/>
<path d="M12.1138 7.48791C11.6074 7.91551 11.0643 8.29425 10.523 8.67421C9.93688 9.08532 9.34591 9.4891 8.77026 9.91365C8.4858 10.1232 8.20441 10.3376 7.93467 10.5654C7.91138 10.585 7.94509 10.6186 7.96839 10.599C8.48458 10.1635 9.03754 9.77254 9.5899 9.38403C10.1717 8.97475 10.7596 8.57341 11.3334 8.15253C11.6105 7.94972 11.8851 7.74203 12.1475 7.5215C12.1708 7.50135 12.1371 7.46836 12.1138 7.48791Z" fill="#83FFA3"/>
<path d="M7.89174 10.5704C8.59306 10.5905 9.29439 10.5985 9.99571 10.5991C10.1649 10.5991 10.3347 10.5991 10.5039 10.5954C10.5155 10.5935 10.524 10.5836 10.524 10.5719C10.524 10.5602 10.5155 10.5502 10.5039 10.5484C9.80076 10.5618 9.09392 10.5484 8.39259 10.5349C8.22585 10.5313 8.05848 10.5282 7.89174 10.5233C7.88015 10.5252 7.87164 10.5351 7.87164 10.5468C7.87164 10.5585 7.88015 10.5685 7.89174 10.5704Z" fill="#83FFA3"/>
<path d="M6.91947 10.599C7.36638 9.7701 7.77773 8.92405 8.21116 8.08717C8.31783 7.88029 8.42613 7.67422 8.53607 7.46897C8.55017 7.44209 8.5091 7.41827 8.495 7.44515C8.04809 8.27409 7.63673 9.12014 7.20331 9.95702C7.09664 10.1641 6.98935 10.3706 6.87839 10.5752C6.86429 10.6021 6.90537 10.6259 6.91947 10.599Z" fill="#83FFA3"/>
<path d="M5.59957 10.5887C5.87912 10.0414 6.15908 9.49423 6.43945 8.9473C6.57922 8.67363 6.719 8.39996 6.85877 8.1263C6.92743 7.99252 6.99548 7.85813 7.06353 7.72435C7.0856 7.68036 7.11932 7.56919 7.16713 7.55025C7.20776 7.54394 7.24912 7.54394 7.28974 7.55025H7.42584C7.78141 7.54414 8.13759 7.53742 8.49377 7.55025C8.52381 7.55025 8.52381 7.50382 8.49377 7.5026C8.04195 7.48855 7.59014 7.5026 7.13893 7.50932C7.13041 7.50921 7.12246 7.51363 7.11809 7.52093C6.60252 8.53924 6.07959 9.5545 5.56034 10.571C5.54624 10.5979 5.58731 10.6223 5.60141 10.5948L5.59957 10.5887Z" fill="#83FFA3"/>
<path d="M6.92312 10.5874C7.01447 9.5679 7.06596 8.54592 7.16037 7.527C7.16344 7.49645 7.11623 7.49645 7.11317 7.527C7.01876 8.54592 6.96726 9.5679 6.87531 10.5874C6.87531 10.6174 6.92006 10.6174 6.92312 10.5874Z" fill="#83FFA3"/>
<path d="M8.50053 7.5032C7.74035 8.32054 6.95074 9.10978 6.17892 9.91551C5.96844 10.1342 5.76 10.3547 5.55361 10.5771C5.53277 10.5991 5.56648 10.6327 5.58733 10.6101C6.3518 9.78539 7.14753 8.98944 7.92671 8.17821C8.13106 7.96563 8.33357 7.75182 8.53424 7.5368C8.55509 7.51481 8.52137 7.48121 8.50053 7.5032Z" fill="#83FFA3"/>
<path d="M5.54069 10.5832C5.9925 10.6052 6.44677 10.6247 6.8992 10.6119C6.92985 10.6119 6.92985 10.5636 6.8992 10.5648C6.44677 10.5771 5.9925 10.5581 5.54069 10.5361C5.51004 10.5361 5.51004 10.5819 5.54069 10.5832Z" fill="#83FFA3"/>
<path d="M6.26964 7.77747C6.24673 7.81522 6.23989 7.86051 6.25063 7.90331C6.26226 7.93965 6.29196 7.96739 6.3291 7.97661C6.41998 7.99141 6.51272 7.96472 6.58168 7.90392C6.65348 7.85171 6.69405 7.76697 6.68958 7.67851C6.67912 7.60423 6.61261 7.55078 6.53754 7.55634C6.48514 7.56228 6.43663 7.58678 6.40083 7.62536C6.38095 7.64364 6.36212 7.66301 6.34443 7.6834C6.32741 7.70041 6.31498 7.72141 6.30826 7.74448C6.30274 7.77441 6.34872 7.78724 6.35424 7.75731C6.35976 7.72738 6.39409 7.69622 6.41554 7.67484C6.43962 7.64786 6.46878 7.62586 6.50137 7.61009C6.52741 7.5985 6.55717 7.59855 6.58317 7.61022C6.60917 7.62189 6.62893 7.64407 6.63747 7.67118C6.64809 7.736 6.62501 7.80178 6.57616 7.84589C6.52433 7.89966 6.45456 7.93268 6.37999 7.93874C6.34941 7.94306 6.31878 7.93127 6.29906 7.90758C6.28357 7.87433 6.28659 7.83544 6.30703 7.80496C6.32113 7.77808 6.28006 7.75426 6.26596 7.78113L6.26964 7.77747Z" fill="#83FFA3"/>
</g>
<path opacity="0.2" d="M17.0372 5.62476L13.2584 12.8049H0.0981445L3.8788 5.62476H7.65088L5.72836 6.50257H5.72407C4.7432 6.85871 3.95911 7.40421 3.55818 8.08532C2.63861 9.64547 4.08356 11.3229 6.7828 11.8373C9.48205 12.3516 12.4136 11.4988 13.3314 9.93869C13.5229 9.62675 13.6184 9.26569 13.606 8.90022L13.804 5.62109L17.0372 5.62476Z" fill="black"/>
<path d="M5.11209 4.4182C4.95278 4.69712 4.79102 4.98641 4.63664 5.27265C4.48226 5.5589 4.3291 5.84758 4.2024 6.13566C4.16919 6.20767 4.14089 6.27908 4.11137 6.35049C4.10829 6.3572 4.11137 6.35049 4.11137 6.35049C4.11137 6.35049 4.11137 6.35537 4.10768 6.36026C4.10551 6.3785 4.10551 6.39694 4.10768 6.41518C4.1191 6.47463 4.1379 6.53244 4.16365 6.5873C4.19194 6.64833 4.22516 6.71608 4.26268 6.78138C4.42817 7.0531 4.61188 7.31348 4.81255 7.56077L4.57267 7.81405C4.28719 7.60633 4.03001 7.36282 3.80752 7.08959C3.6785 6.93532 3.57869 6.75915 3.51291 6.5696C3.49342 6.50755 3.48144 6.44342 3.47723 6.37857C3.47516 6.34028 3.47639 6.3019 3.48092 6.26382C3.48305 6.24331 3.48633 6.22294 3.49076 6.20279C3.49076 6.19242 3.4963 6.18143 3.49876 6.17105L3.50676 6.14359C3.53505 6.05936 3.56211 5.97392 3.59287 5.89214C3.7134 5.57143 3.85095 5.25728 4.00496 4.95101C4.15934 4.64585 4.31988 4.3535 4.49702 4.05933L5.11209 4.4182Z" fill="#FFC3BD"/>
<path d="M4.72337 7.48016L5.05059 7.58636L4.77565 8.04655C4.77565 8.04655 4.53455 7.93852 4.48657 7.71941L4.72337 7.48016Z" fill="#FFC3BD"/>
<path d="M5.49834 7.76461L5.17912 8.11921L4.77625 8.04719L5.05118 7.58701L5.49834 7.76461Z" fill="#FFC3BD"/>
<path d="M7.02368 2.27654C7.01446 2.31255 7.02368 2.34672 7.05013 2.35283C7.07658 2.35893 7.10057 2.33452 7.11164 2.29851C7.12271 2.2625 7.11164 2.22771 7.08519 2.22161C7.05874 2.2155 7.03291 2.23992 7.02368 2.27654Z" fill="#263238"/>
<path d="M7.02315 2.34613C7.03805 2.46765 7.06972 2.58655 7.11726 2.69951C7.05707 2.72304 6.98946 2.71879 6.93274 2.68791L7.02315 2.34613Z" fill="#ED847E"/>
<path d="M6.94249 2.04158C6.93442 2.03809 6.9292 2.03018 6.9292 2.02144C6.9292 2.0127 6.93442 2.00479 6.94249 2.0013C7.00814 1.9738 7.08317 1.97972 7.14362 2.01717C7.15341 2.0245 7.15582 2.03808 7.14916 2.04829C7.14198 2.05801 7.12827 2.06019 7.1184 2.05318C7.06994 2.02432 7.01049 2.02024 6.95848 2.04219C6.95328 2.0441 6.94753 2.04388 6.94249 2.04158Z" fill="#263238"/>
<path d="M5.76961 2.41815C5.83665 2.75688 5.90369 3.37758 5.66443 3.60341C5.66443 3.60341 5.75792 3.94763 6.39206 3.94763C7.09016 3.94763 6.72604 3.60341 6.72604 3.60341C6.3447 3.51369 6.357 3.23294 6.4185 2.96989L5.76961 2.41815Z" fill="#FFC3BD"/>
<path d="M5.54755 3.77793C5.51496 3.59483 5.47867 3.38732 5.59922 3.33422C5.73146 3.27319 6.42649 3.26953 6.65099 3.42333C6.87549 3.57713 6.774 3.93112 6.774 3.93112L5.54755 3.77793Z" fill="#263238"/>
<path opacity="0.6" d="M5.54755 3.77793C5.51496 3.59483 5.47867 3.38732 5.59922 3.33422C5.73146 3.27319 6.42649 3.26953 6.65099 3.42333C6.87549 3.57713 6.774 3.93112 6.774 3.93112L5.54755 3.77793Z" fill="#83FFA3"/>
<path fill-rule="evenodd" clip-rule="evenodd" d="M3.43665 19.3515C3.40032 19.3773 3.35839 19.3806 3.3204 19.3605C3.28052 19.3481 3.24173 19.3291 3.20477 19.304C3.20067 19.3018 3.19798 19.296 3.198 19.2897C3.19839 19.2832 3.20125 19.2777 3.20538 19.2753C3.21153 19.2708 3.3573 19.1847 3.41881 19.2287C3.43273 19.2376 3.44328 19.255 3.44772 19.2762C3.45562 19.3022 3.45115 19.3326 3.43665 19.3515ZM3.40981 19.2583L3.39689 19.2521V19.2565C3.34292 19.2505 3.2887 19.2621 3.23821 19.2906C3.30463 19.3265 3.39751 19.3579 3.42273 19.3265C3.42642 19.3238 3.43257 19.3148 3.42642 19.2861C3.42394 19.2738 3.41787 19.2636 3.40981 19.2583Z" fill="#83FFA3"/>
<path fill-rule="evenodd" clip-rule="evenodd" d="M3.2103 19.2772H3.20538C3.20335 19.2769 3.20144 19.276 3.19984 19.2747C3.19683 19.2719 3.19565 19.2677 3.19677 19.2638C3.19683 19.2636 3.19693 19.2633 3.19707 19.2628C3.20124 19.25 3.24059 19.1291 3.3001 19.0984C3.31526 19.0904 3.3331 19.0891 3.3493 19.0947C3.36608 19.0982 3.37797 19.1131 3.3776 19.1301C3.37637 19.1826 3.26319 19.2619 3.2103 19.2772ZM3.34198 19.1131H3.33891C3.32948 19.1106 3.31946 19.1114 3.31061 19.1156C3.26971 19.1496 3.24013 19.1951 3.22573 19.2462C3.28048 19.2205 3.35551 19.1583 3.35551 19.1272C3.35551 19.1241 3.35551 19.1174 3.34198 19.1131Z" fill="#83FFA3"/>
<path fill-rule="evenodd" clip-rule="evenodd" d="M6.89948 19.5381C6.87979 19.575 6.82382 19.5871 6.76231 19.5871C6.71509 19.5865 6.66798 19.5804 6.62146 19.569C6.61704 19.5674 6.61367 19.5624 6.61285 19.5561C6.612 19.5496 6.61422 19.543 6.61839 19.5398C6.62392 19.5346 6.78692 19.4048 6.86442 19.4341C6.87917 19.4388 6.89186 19.4519 6.89948 19.4702C6.90985 19.4905 6.90985 19.5178 6.89948 19.5381ZM6.85752 19.4607C6.85038 19.4593 6.84314 19.4593 6.836 19.4607H6.83415C6.77028 19.4714 6.70848 19.4991 6.65209 19.5424C6.73882 19.5596 6.85691 19.5587 6.87905 19.5166C6.88397 19.5106 6.88705 19.5011 6.87905 19.4822C6.87426 19.4712 6.86649 19.4635 6.85752 19.4607Z" fill="#83FFA3"/>
<path fill-rule="evenodd" clip-rule="evenodd" d="M6.62578 19.5286H6.62148C6.61921 19.5291 6.61687 19.5288 6.61471 19.528C6.61147 19.5256 6.60982 19.5216 6.61041 19.5176C6.61041 19.5128 6.62086 19.3876 6.68237 19.3394C6.69937 19.325 6.72162 19.3181 6.74388 19.3205C6.77402 19.3236 6.78509 19.3388 6.78509 19.351C6.7937 19.4066 6.68176 19.5036 6.62578 19.5286ZM6.74137 19.3408H6.73522C6.72106 19.3409 6.70737 19.3458 6.69647 19.3548C6.66175 19.395 6.64028 19.4449 6.63496 19.4976C6.69278 19.4628 6.76843 19.3841 6.76351 19.353C6.76348 19.3528 6.76345 19.3527 6.76342 19.3526C6.76274 19.3496 6.76069 19.3408 6.74137 19.3408Z" fill="#83FFA3"/>
<path d="M6.10791 19.5177H6.57475L6.62088 18.4447H6.15466L6.10791 19.5177Z" fill="#FFC3BD"/>
<path d="M2.68683 19.1539L3.14259 19.2522L3.60082 18.253L3.14444 18.1548L2.68683 19.1539Z" fill="#FFC3BD"/>
<path d="M3.18695 19.2064L2.67398 19.0965C2.65535 19.0925 2.63641 19.1019 2.62847 19.1191L2.45071 19.5018C2.44205 19.5208 2.44259 19.5426 2.45217 19.5612C2.46175 19.5797 2.47933 19.5929 2.49992 19.597C2.67952 19.6324 2.7687 19.6403 2.99197 19.6892C3.13098 19.7191 3.44405 19.7947 3.63533 19.8356C3.82662 19.8765 3.89305 19.694 3.81985 19.6605C3.48526 19.5085 3.34564 19.3748 3.25461 19.2503C3.23828 19.2279 3.21418 19.2123 3.18695 19.2064Z" fill="#263238"/>
<path d="M6.57164 19.4639H6.06174C6.04267 19.4638 6.02619 19.4771 6.02238 19.4957L5.93012 19.907C5.92538 19.9272 5.93026 19.9484 5.94336 19.9645C5.95646 19.9806 5.97631 19.9898 5.99716 19.9894C6.18168 19.9864 6.44678 19.976 6.67804 19.976C6.94806 19.976 7.18117 19.9906 7.49854 19.9906C7.68983 19.9906 7.74457 19.7984 7.66277 19.7807C7.29803 19.7013 6.99972 19.6928 6.68419 19.4999C6.6507 19.4779 6.61177 19.4655 6.57164 19.4639Z" fill="#263238"/>
<path d="M7.50225 4.16306C7.65417 4.50301 7.82024 4.85211 7.9943 5.18596C8.08103 5.35319 8.17144 5.51798 8.26493 5.67422C8.35532 5.82865 8.45515 5.97744 8.56386 6.11976L8.60322 6.16859C8.61306 6.17774 8.60322 6.17347 8.6186 6.18446C8.64314 6.20578 8.66948 6.22497 8.69733 6.24183C8.77116 6.2865 8.84733 6.32725 8.92552 6.36389C9.09036 6.44262 9.26565 6.5183 9.44341 6.58971C9.7983 6.73314 10.1637 6.87046 10.5265 7.00779L10.438 7.34469C10.0442 7.28196 9.65412 7.19843 9.26934 7.09445C9.07621 7.03952 8.88308 6.98337 8.6881 6.91135C8.58553 6.87376 8.4853 6.83015 8.38795 6.78074C8.33013 6.751 8.2748 6.71671 8.22249 6.67821C8.18913 6.65331 8.15786 6.62576 8.129 6.59582L8.0718 6.53478C7.93138 6.37727 7.80328 6.20935 7.68862 6.03248C7.57483 5.8622 7.47211 5.68826 7.3737 5.51249C7.17925 5.16256 7.00471 4.80211 6.85089 4.43282L7.50225 4.16306Z" fill="#FFC3BD"/>
<path d="M4.68465 3.70838C4.24733 3.80786 3.51294 5.96353 3.51294 5.96353L4.22765 6.19912C4.22765 6.19912 4.95712 5.12678 5.20499 4.61227C5.46394 4.06847 5.13242 3.60645 4.68465 3.70838Z" fill="#83FFA3"/>
<path opacity="0.5" d="M4.68465 3.70838C4.24733 3.80786 3.51294 5.96353 3.51294 5.96353L4.22765 6.19912C4.22765 6.19912 4.95712 5.12678 5.20499 4.61227C5.46394 4.06847 5.13242 3.60645 4.68465 3.70838Z" fill="black"/>
<path d="M4.35184 6.0935C4.35184 6.0935 3.65127 5.96106 3.49074 5.86218C3.43477 5.94275 3.36773 6.23448 3.41324 6.32054C3.45876 6.40659 4.11134 6.53049 4.19991 6.47983C4.28848 6.42918 4.35184 6.0935 4.35184 6.0935Z" fill="#263238"/>
<path opacity="0.6" d="M4.35184 6.0935C4.35184 6.0935 3.65127 5.96106 3.49074 5.86218C3.43477 5.94275 3.36773 6.23448 3.41324 6.32054C3.45876 6.40659 4.11134 6.53049 4.19991 6.47983C4.28848 6.42918 4.35184 6.0935 4.35184 6.0935Z" fill="#83FFA3"/>
<path opacity="0.3" d="M4.96817 4.47374C4.8347 4.60618 4.71353 4.98214 4.70984 5.46002C4.86422 5.21589 5.02352 4.95406 5.13485 4.74472C5.08196 4.55613 5.02291 4.42125 4.96817 4.47374Z" fill="black"/>
<path d="M7.2999 3.73218C7.2999 3.73218 7.79688 4.2888 7.32758 7.73592H4.83102C4.8138 7.35569 5.05429 5.5003 4.68463 3.70777C4.96068 3.65487 5.23989 3.6198 5.52051 3.60279C5.87409 3.58264 6.22854 3.58264 6.58212 3.60279C6.82441 3.62732 7.0644 3.67058 7.2999 3.73218Z" fill="#83FFA3"/>
<path opacity="0.5" d="M7.2999 3.73218C7.2999 3.73218 7.79688 4.2888 7.32758 7.73592H4.83102C4.8138 7.35569 5.05429 5.5003 4.68463 3.70777C4.96068 3.65487 5.23989 3.6198 5.52051 3.60279C5.87409 3.58264 6.22854 3.58264 6.58212 3.60279C6.82441 3.62732 7.0644 3.67058 7.2999 3.73218Z" fill="black"/>
<path opacity="0.3" d="M6.92963 4.83319C6.97699 5.3361 7.29867 5.9745 7.48688 6.2638C7.51148 5.93178 7.5244 5.64248 7.52809 5.38981L6.92963 4.83319Z" fill="black"/>
<path d="M6.68178 4.09106C6.38101 4.65561 7.95128 6.49147 7.95128 6.49147L8.49992 5.93913C8.49992 5.93913 7.78767 4.70322 7.62037 4.15514C7.41371 3.47768 6.91058 3.66139 6.68178 4.09106Z" fill="#83FFA3"/>
<path opacity="0.5" d="M6.68178 4.09106C6.38101 4.65561 7.95128 6.49147 7.95128 6.49147L8.49992 5.93913C8.49992 5.93913 7.78767 4.70322 7.62037 4.15514C7.41371 3.47768 6.91058 3.66139 6.68178 4.09106Z" fill="black"/>
<path d="M8.47771 5.82986C8.47771 5.82986 8.00165 6.35658 7.83435 6.44019C7.87495 6.5293 8.09083 6.73864 8.18986 6.74535C8.28889 6.75207 8.73174 6.26075 8.73358 6.15944C8.73543 6.05813 8.47771 5.82986 8.47771 5.82986Z" fill="#263238"/>
<path opacity="0.6" d="M8.47771 5.82986C8.47771 5.82986 8.00165 6.35658 7.83435 6.44019C7.87495 6.5293 8.09083 6.73864 8.18986 6.74535C8.28889 6.75207 8.73174 6.26075 8.73358 6.15944C8.73543 6.05813 8.47771 5.82986 8.47771 5.82986Z" fill="#83FFA3"/>
<path d="M10.4189 7.01388L10.871 6.8204L11.0118 7.30866C11.0118 7.30866 10.6668 7.53265 10.3906 7.33674L10.4189 7.01388Z" fill="#FFC3BD"/>
<path d="M11.3754 7.05174C11.3606 7.06153 11.3406 7.05773 11.3305 7.0432L10.8286 6.3047C10.8237 6.29769 10.8218 6.28901 10.8234 6.28063C10.8251 6.27225 10.83 6.26487 10.8372 6.26015C10.8443 6.25528 10.853 6.25345 10.8615 6.25505C10.8699 6.25666 10.8773 6.26158 10.8821 6.2687L11.384 7.00719C11.3889 7.0142 11.3907 7.02288 11.3891 7.03126C11.3875 7.03965 11.3826 7.04703 11.3754 7.05174Z" fill="#263238"/>
<path d="M11.3477 6.85644L11.5464 7.14818L11.0119 7.30686L10.871 6.81982L11.3477 6.85644Z" fill="#FFC3BD"/>
<path opacity="0.2" d="M6.62083 18.4453L6.59746 18.9983H6.13L6.15399 18.4453H6.62083Z" fill="black"/>
<path opacity="0.2" d="M3.14451 18.1554L3.60089 18.253L3.36471 18.7682L2.90833 18.6699L3.14451 18.1554Z" fill="black"/>
<path d="M5.82744 1.88962C5.7401 2.34126 5.66567 2.60126 5.83297 2.88689C6.08453 3.31412 6.68976 3.25309 6.91119 2.83746C7.11108 2.46272 7.21872 1.78769 6.82754 1.49901C6.65222 1.36884 6.42148 1.33804 6.21773 1.41761C6.01398 1.49719 5.8663 1.67579 5.82744 1.88962Z" fill="#FFC3BD"/>
<path d="M5.64786 1.6662C5.97692 1.55939 6.6006 1.3293 6.82079 1.85479C7.04099 2.38028 6.14422 2.92896 5.91603 2.92958C5.73274 2.93141 5.2862 1.78827 5.64786 1.6662Z" fill="#263238"/>
<path d="M6.33298 1.88778C6.97757 2.23871 7.56312 1.73397 7.30172 1.16332C7.04031 0.592664 6.46891 0.675058 6.64667 0.953366C6.82442 1.23167 6.33298 0.80994 5.99346 0.939939C5.75543 1.03088 6.0642 1.17919 6.09311 1.2866C6.12201 1.39402 5.47004 1.39707 5.38332 1.5582C5.29659 1.71933 5.60966 2.055 5.77019 2.00252C5.93073 1.95003 6.21919 1.82491 6.33298 1.88778Z" fill="#263238"/>
<path d="M6.51939 2.15815C6.49812 2.27044 6.51499 2.38657 6.56736 2.48833C6.63687 2.62138 6.75742 2.58171 6.8097 2.45537C6.85706 2.34124 6.87736 2.13495 6.7728 2.04401C6.66824 1.95308 6.54645 2.02326 6.51939 2.15815Z" fill="#FFC3BD"/>
<path d="M6.4419 7.7359C6.4419 7.7359 5.91233 11.2758 5.6214 12.6014C5.30279 14.054 3.60028 18.709 3.60028 18.709L2.7644 18.5295C2.7644 18.5295 4.03944 14.1712 4.22089 12.7314C4.41832 11.1708 4.83104 7.73407 4.83104 7.73407L6.4419 7.7359Z" fill="#263238"/>
<path d="M3.80015 18.4325C3.80384 18.4325 3.64454 18.7322 3.64454 18.7322L2.7041 18.5301L2.78345 18.25L3.80015 18.4325Z" fill="#83FFA3"/>
<path opacity="0.3" d="M6.10729 8.99683C5.49222 9.11585 5.55927 11.3826 5.63307 12.5483C5.8096 11.7244 6.06854 10.1388 6.24507 9.01331C6.20232 8.9926 6.15378 8.9868 6.10729 8.99683Z" fill="black"/>
<path d="M7.32636 7.73593C7.32636 7.73593 7.38787 11.1989 7.33989 12.6112C7.28822 14.0803 6.7728 18.8909 6.7728 18.8909H5.98059C5.98059 18.8909 5.95106 14.1663 5.91601 12.7235C5.87787 11.1507 5.68658 7.73593 5.68658 7.73593L7.32636 7.73593Z" fill="#263238"/>
<path d="M6.92345 18.5783C6.92714 18.5783 6.87855 18.9043 6.87855 18.9043H5.91658L5.89075 18.6137L6.92345 18.5783Z" fill="#83FFA3"/>
</svg>
