<svg width="18" height="21" viewBox="0 0 18 21" fill="none" xmlns="http://www.w3.org/2000/svg">
<rect x="0.548096" y="2.46036" width="12.964" height="9.38488" rx="0.711342" fill="#263238"/>
<rect x="6.84186" y="2.03537" width="0.377163" height="18.5289" rx="0.170198" fill="#263238"/>
<path d="M6.62617 20.1892H7.43341C7.60799 20.1892 7.74952 20.3299 7.74952 20.5036V20.542C7.74952 20.5479 7.74716 20.5536 7.74296 20.5578C7.73877 20.5619 7.73307 20.5643 7.72713 20.5643H6.33244C6.32008 20.5643 6.31006 20.5543 6.31006 20.542V20.5036C6.31006 20.3299 6.45159 20.1892 6.62617 20.1892V20.1892Z" fill="#263238"/>
<rect x="10.625" y="2.22427" width="1.08536" height="0.0674637" fill="#FF7171"/>
<rect x="9.64551" y="2.22427" width="0.331714" height="0.0674637" fill="#FF7171"/>
<rect x="0.596252" y="2.46036" width="12.964" height="9.38488" rx="0.711342" fill="#FF7171"/>
<path opacity="0.7" d="M12.6072 2.7977C12.9462 2.7977 13.2211 3.07254 13.2211 3.41158V10.8941C13.2211 11.2331 12.9462 11.5079 12.6072 11.5079H1.54933C1.21029 11.5079 0.935449 11.2331 0.935449 10.8941V3.41158C0.935449 3.07254 1.21029 2.7977 1.54933 2.7977L12.6072 2.7977Z" fill="white"/>
<path opacity="0.2" d="M4.50966 7.04051C3.71868 6.96687 2.92442 6.93354 2.13 6.94066C2.13747 5.86799 2.23379 4.70829 2.31859 3.56747L4.65076 3.71657C4.56054 5.04763 4.471 6.38274 4.50966 7.04051Z" fill="black"/>
<path d="M4.55452 6.99261C3.76356 6.91863 2.96928 6.88531 2.17487 6.89276C2.18233 5.81941 2.23185 4.70896 2.31664 3.56747L4.6963 3.66732C4.60743 4.99838 4.51789 6.33416 4.55452 6.99261Z" fill="white"/>
<path opacity="0.2" d="M7.6776 9.3255L5.29862 9.42872L5.19958 6.05486L7.53244 6.00021L7.6776 9.3255Z" fill="black"/>
<path d="M5.1991 6.05597L7.57854 5.95306L7.72392 9.27791L5.34448 9.38081L5.1991 6.05597Z" fill="white"/>
<path opacity="0.2" d="M12.9816 9.24521L10.6202 8.93556L11.1127 5.5961L13.4191 5.94556L12.9816 9.24521Z" fill="black"/>
<path d="M11.1117 5.59687L13.4729 5.90686L13.035 9.20622L10.6738 8.89623L11.1117 5.59687Z" fill="white"/>
<path opacity="0.2" d="M4.86381 11.6847C4.43238 11.8196 3.32124 11.8406 2.48958 11.7994C2.37087 10.7605 2.38308 9.59738 2.41293 8.42621L4.74578 8.38776C4.69423 9.19192 4.73425 10.6228 4.86381 11.6847Z" fill="black"/>
<path d="M4.91126 11.6361C4.47915 11.7711 3.36801 11.7913 2.53703 11.7502C2.41919 10.6456 2.37794 9.53435 2.41357 8.42419L4.79323 8.33649C4.74099 9.14335 4.78102 10.5743 4.91126 11.6361Z" fill="white"/>
<path opacity="0.2" d="M10.7146 6.70317L8.33357 6.75511C8.25353 5.64736 8.27659 4.48901 8.30712 3.38193H10.6413C10.6149 4.55917 10.6325 5.68244 10.7146 6.70317Z" fill="black"/>
<path d="M10.7614 6.65324L8.3804 6.70519C8.30081 5.59743 8.27684 4.48833 8.30849 3.37787L10.6895 3.32593C10.6637 4.51059 10.6827 5.63319 10.7614 6.65324Z" fill="white"/>
<path d="M11.5798 19.8117L11.0517 19.6712L11.2398 18.4217L11.7679 18.5622L11.5798 19.8117Z" fill="#FF8B7B"/>
<path d="M16.4653 20.2865H15.9181L15.4922 19.0309H16.0394L16.4653 20.2865Z" fill="#FF8B7B"/>
<path d="M15.8451 20.2237H16.5123C16.5346 20.2238 16.5538 20.2392 16.5586 20.2608L16.667 20.743C16.6719 20.7668 16.6657 20.7915 16.6501 20.8102C16.6344 20.8289 16.611 20.8395 16.5865 20.8389C16.3719 20.8356 16.2158 20.8227 15.9453 20.8227C15.779 20.8227 15.2774 20.8403 15.0485 20.8403C14.8195 20.8403 14.7888 20.6154 14.8829 20.5945C15.304 20.5033 15.6216 20.3777 15.7565 20.2568C15.7811 20.2356 15.8125 20.2238 15.8451 20.2237V20.2237Z" fill="#263238"/>
<path d="M11.0721 19.6118L11.6486 19.7651C11.6702 19.771 11.6849 19.7909 11.6841 19.813L11.6623 20.3061C11.6615 20.3303 11.6496 20.3527 11.6298 20.367C11.6101 20.3813 11.5849 20.3857 11.5614 20.379C11.357 20.3203 11.0564 20.2277 10.7947 20.1582C10.4888 20.0771 10.2203 20.0231 9.8618 19.9279C9.64509 19.8704 9.64373 19.6368 9.73982 19.6415C10.1773 19.6618 10.5174 19.7421 10.9338 19.6185C10.9783 19.6035 11.0263 19.6011 11.0721 19.6118Z" fill="#263238"/>
<path d="M13.9002 4.12101C13.7196 4.34592 13.5322 4.58771 13.355 4.82477C13.1778 5.06183 13.0075 5.307 12.8507 5.55284C12.7724 5.67509 12.7008 5.79936 12.632 5.92295L12.4439 6.28969L12.4282 6.32278C12.4282 6.32616 12.4241 6.32886 12.4234 6.32819C12.4225 6.32011 12.4225 6.31195 12.4234 6.30387C12.4234 6.28298 12.4211 6.26216 12.4166 6.24174C12.4142 6.2305 12.411 6.21944 12.4071 6.20864C12.4071 6.20189 12.4023 6.19514 12.3996 6.18838C12.3962 6.17886 12.3921 6.16961 12.3873 6.16069C12.3752 6.13802 12.3605 6.11674 12.3437 6.0972C12.32 6.07053 12.2922 6.04774 12.2613 6.02967C12.2299 6.0117 12.1959 5.99893 12.1604 5.99184C12.1339 5.98698 12.1069 5.98517 12.08 5.98644C12.0494 5.98786 12.0192 5.99425 11.9907 6.00535C11.9707 6.01219 11.9519 6.02198 11.9348 6.03439C11.9178 6.04723 11.9185 6.04925 11.9178 6.0506C11.9171 6.05195 11.9219 6.0506 11.926 6.0506C11.9502 6.03427 11.973 6.01597 11.9941 5.9959C12.02 5.97361 12.0459 5.94929 12.0718 5.92363C12.1774 5.823 12.2865 5.71223 12.4003 5.6089L12.7444 5.83043C12.6892 5.98235 12.6227 6.12999 12.5454 6.27213C12.5033 6.35316 12.4536 6.43005 12.3969 6.50176C12.3864 6.5147 12.3752 6.5271 12.3635 6.53891C12.3446 6.55848 12.3239 6.57613 12.3015 6.59159C12.2761 6.60905 12.2486 6.62335 12.2197 6.63414C12.1864 6.64638 12.1515 6.65367 12.1161 6.65575C12.0869 6.65712 12.0576 6.65508 12.0289 6.64967C11.9909 6.64232 11.9545 6.62862 11.9212 6.60915C11.8882 6.59008 11.8586 6.56591 11.8333 6.53756C11.815 6.5168 11.799 6.49416 11.7856 6.47002C11.7808 6.45989 11.7754 6.44908 11.7713 6.43895L11.7624 6.41531C11.757 6.39775 11.7542 6.38695 11.7515 6.37479C11.7454 6.34502 11.7426 6.31466 11.7433 6.28429C11.7437 6.25715 11.746 6.23007 11.7501 6.20324C11.7501 6.18365 11.7556 6.16812 11.7583 6.15326C11.7645 6.12354 11.7699 6.09923 11.7754 6.07559C11.7979 5.98306 11.8217 5.90539 11.849 5.82705C11.8762 5.7487 11.9117 5.67036 11.9464 5.59539C12.0146 5.4441 12.0895 5.29822 12.1686 5.15774C12.3254 4.87887 12.497 4.60834 12.6824 4.34727C12.7737 4.21827 12.8678 4.09062 12.9645 3.96567C13.0613 3.84073 13.1594 3.71983 13.2678 3.59421L13.9002 4.12101Z" fill="#FF8B7B"/>
<path d="M14.1973 3.7232C14.3145 4.22772 13.1962 5.51974 13.1962 5.51974L12.1931 4.79167C12.4158 4.37308 12.6831 3.97933 12.9904 3.61717C13.4498 3.10252 14.0685 3.16871 14.1973 3.7232Z" fill="#FF7171"/>
<path opacity="0.2" d="M14.1973 3.7232C14.3145 4.22772 13.1962 5.51974 13.1962 5.51974L12.1931 4.79167C12.4158 4.37308 12.6831 3.97933 12.9904 3.61717C13.4498 3.10252 14.0685 3.16871 14.1973 3.7232Z" fill="black"/>
<path opacity="0.2" d="M11.2398 18.4217L11.1423 19.066L11.6712 19.2065L11.7679 18.5622L11.2398 18.4217Z" fill="black"/>
<path opacity="0.2" d="M16.0394 19.0316H15.4922L15.7123 19.6786H16.2595L16.0394 19.0316Z" fill="black"/>
<path d="M16.6445 3.64756C15.9324 5.66833 15.9194 7.8566 15.8397 8.2956C15.4144 8.23954 13.813 8.02544 12.94 7.9086C12.7437 4.80586 13.6038 3.26867 13.6038 3.26867C13.6038 3.26867 13.7932 3.24368 14.0495 3.23287C14.1299 3.23287 14.2164 3.22747 14.3064 3.22815C14.3561 3.22815 14.4065 3.22815 14.4577 3.23152C14.8715 3.26392 15.2831 3.31985 15.6904 3.39902C15.7675 3.4132 15.8458 3.42941 15.9215 3.4463C15.9971 3.46318 16.0578 3.47939 16.1259 3.49628C16.4183 3.56989 16.6445 3.64756 16.6445 3.64756Z" fill="#FF7171"/>
<path opacity="0.2" d="M16.6445 3.64756C15.9324 5.66833 15.9194 7.8566 15.8397 8.2956C15.4144 8.23954 13.813 8.02544 12.94 7.9086C12.7437 4.80586 13.6038 3.26867 13.6038 3.26867C13.6038 3.26867 13.7932 3.24368 14.0495 3.23287C14.1299 3.23287 14.2164 3.22747 14.3064 3.22815C14.3561 3.22815 14.4065 3.22815 14.4577 3.23152C14.8715 3.26392 15.2831 3.31985 15.6904 3.39902C15.7675 3.4132 15.8458 3.42941 15.9215 3.4463C15.9971 3.46318 16.0578 3.47939 16.1259 3.49628C16.4183 3.56989 16.6445 3.64756 16.6445 3.64756Z" fill="black"/>
<path opacity="0.2" d="M15.978 4.57825C15.8629 4.88285 15.9528 5.72641 16.0789 6.01413C16.1239 5.7129 16.1791 5.39682 16.2486 5.07263L15.978 4.57825Z" fill="black"/>
<path d="M12.4057 5.56972L12.8391 5.16449L13.1212 5.79801C12.961 5.96071 12.7128 6.0017 12.5079 5.89931L12.4057 5.56972Z" fill="#FF8B7B"/>
<path d="M13.1574 4.95377L13.3741 5.51434L13.1212 5.79463L12.8391 5.16111L13.1574 4.95377Z" fill="#FF8B7B"/>
<path d="M15.7552 2.00433C15.6237 2.38728 15.4485 3.09712 15.6904 3.39631C15.4458 3.58002 15.1303 3.78736 14.6573 3.74076C14.1844 3.69416 14.3104 3.38416 14.4576 3.23152C14.9142 3.18627 14.9469 2.85938 14.9115 2.5433L15.7552 2.00433Z" fill="#FF8B7B"/>
<path d="M14.3738 3.12885C14.3738 3.02214 14.8168 2.93232 14.8338 3.03362C14.8508 3.13493 14.6975 3.1687 14.7459 3.30378C14.7943 3.43886 15.2406 3.45237 15.4192 3.26123C15.5378 3.13358 15.5752 3.00526 15.7259 3.08968C15.8765 3.1741 16.0577 3.2923 15.9582 3.47803C15.8587 3.66376 15.2972 4.10277 14.7861 3.98998C14.275 3.87719 14.1326 3.605 14.2321 3.48681C14.3186 3.38671 14.3686 3.26058 14.3738 3.12885Z" fill="#FF7171"/>
<path opacity="0.2" d="M15.411 2.22452L14.9115 2.5433C14.9212 2.61673 14.9241 2.69087 14.9204 2.76483C15.1235 2.75653 15.309 2.64802 15.4144 2.47576C15.4717 2.36703 15.4526 2.24343 15.411 2.22452Z" fill="black"/>
<path d="M15.8376 1.32896C15.7892 1.86522 15.7879 2.1813 15.5064 2.44943C15.0832 2.85466 14.4215 2.58451 14.3077 2.04825C14.2055 1.56264 14.3023 0.765006 14.8379 0.569143C15.0778 0.478561 15.348 0.517692 15.5517 0.672536C15.7555 0.827381 15.8637 1.07581 15.8376 1.32896Z" fill="#FF8B7B"/>
<path d="M15.8792 0.900076C15.4812 0.870359 15.4478 1.55521 15.777 1.84968C16.175 1.69501 16.731 0.960186 15.8792 0.900076Z" fill="#263238"/>
<path d="M15.4853 1.00679C15.2523 0.642083 14.8039 1.22022 14.5824 0.821737C14.4495 0.581974 14.2226 0.841999 14.0842 0.698141C13.9459 0.554283 14.1599 0.167959 14.3043 0.133514C14.2233 0.22064 14.2076 0.531995 14.4509 0.378006C14.6941 0.224017 14.8686 0.0646246 15.1664 0.323299C15.4642 0.581974 15.7757 0.061923 16.0489 0.458377C16.2888 0.802826 15.7613 1.44039 15.4853 1.00679Z" fill="#263238"/>
<path d="M15.9358 0.950048C15.8719 0.949815 15.8084 0.939557 15.7477 0.919656C15.7343 0.915552 15.7269 0.901492 15.731 0.88825C15.7351 0.875008 15.7493 0.8676 15.7627 0.871703C15.9371 0.926409 16.1068 0.897368 16.1845 0.800111C16.2452 0.724468 16.2404 0.620458 16.1729 0.507667C16.1658 0.495731 16.1698 0.48031 16.1818 0.473223C16.1938 0.466135 16.2094 0.470066 16.2166 0.482003C16.2949 0.611678 16.2976 0.739326 16.2247 0.831179C16.1518 0.912481 16.0454 0.956268 15.9358 0.950048Z" fill="#263238"/>
<path d="M16.0652 1.92801C15.989 2.04021 15.8712 2.11811 15.7374 2.14481C15.5596 2.17791 15.486 2.01716 15.548 1.85845C15.6038 1.71594 15.764 1.52683 15.9364 1.56465C16.1088 1.60247 16.1572 1.78888 16.0652 1.92801Z" fill="#FF8B7B"/>
<path d="M10.9474 18.8735L11.8415 19.1113C11.8415 19.1113 12.6926 15.9869 12.9618 14.316C13.0436 13.8088 13.2262 13.1064 13.447 12.3574C13.7251 11.4118 14.0638 10.3933 14.3384 9.5957C14.6287 8.75552 14.8461 8.16185 14.8461 8.16185L12.938 7.90723C12.938 7.90723 11.4858 12.3196 11.3222 13.9662C11.1539 15.6796 10.9474 18.8735 10.9474 18.8735Z" fill="#263238"/>
<path opacity="0.2" d="M13.447 12.3587C13.7251 11.4132 14.0638 10.3947 14.3384 9.59707L14.1694 9.1601C13.6563 9.6896 13.4157 11.4125 13.447 12.3587Z" fill="black"/>
<path d="M13.9683 8.04639C13.9683 8.04639 13.8743 12.691 14.0024 14.2742C14.1435 16.0086 15.4546 19.553 15.4546 19.553H16.4564C16.4564 19.553 15.7879 16.3111 15.5834 14.6227C15.3497 12.7046 15.8397 8.29425 15.8397 8.29425L13.9683 8.04639Z" fill="#263238"/>
<path d="M15.3347 19.5746H16.5143V19.2254L15.1957 19.2025L15.3347 19.5746Z" fill="#FF7171"/>
<path d="M10.8295 18.8641L11.8953 19.1478L11.988 18.8067L10.8608 18.4886L10.8295 18.8641Z" fill="#FF7171"/>
<path d="M15.0117 1.45658C15.0117 1.4998 14.9865 1.53492 14.9572 1.53425C14.9279 1.53357 14.906 1.4971 14.9074 1.4532C14.9088 1.4093 14.9333 1.37485 14.9619 1.37553C14.9905 1.3762 15.013 1.41268 15.0117 1.45658Z" fill="#263238"/>
<path d="M14.5136 1.44039C14.5136 1.48429 14.4877 1.51874 14.4591 1.51806C14.4305 1.51739 14.408 1.48092 14.4086 1.43769C14.4093 1.39447 14.4345 1.35867 14.4632 1.36002C14.4918 1.36137 14.5143 1.39852 14.5136 1.44039Z" fill="#263238"/>
<path d="M14.6709 1.46875C14.6148 1.60085 14.5402 1.72452 14.4495 1.83616C14.5092 1.88142 14.5861 1.898 14.6594 1.88141L14.6709 1.46875Z" fill="#FF5652"/>
<path d="M14.842 2.00366C14.9415 1.99529 15.0331 1.94638 15.0948 1.86858C15.0995 1.86365 15.0995 1.85596 15.0948 1.85102C15.092 1.84898 15.0884 1.84818 15.0849 1.84882C15.0814 1.84945 15.0784 1.85147 15.0764 1.8544C15.005 1.94116 14.8955 1.98823 14.7827 1.9807C14.7792 1.98051 14.7757 1.98178 14.7731 1.98421C14.7706 1.98664 14.7691 1.99001 14.7691 1.99353C14.7691 2.00036 14.7745 2.006 14.7814 2.00636C14.8016 2.00698 14.8219 2.00608 14.842 2.00366Z" fill="#263238"/>
<path d="M15.1698 1.30126C15.1742 1.30082 15.1785 1.29918 15.182 1.29653C15.1876 1.29259 15.1914 1.28661 15.1926 1.27989C15.1937 1.27318 15.1921 1.26629 15.1882 1.26074C15.1413 1.19226 15.0638 1.15049 14.9803 1.14862C14.9734 1.14897 14.967 1.15201 14.9624 1.15708C14.9578 1.16215 14.9554 1.16883 14.9558 1.17564C14.956 1.18239 14.9589 1.18878 14.9639 1.19336C14.9689 1.19794 14.9756 1.20032 14.9824 1.19995C15.0484 1.20213 15.1094 1.23585 15.1459 1.29045C15.1514 1.29796 15.1605 1.30207 15.1698 1.30126Z" fill="#263238"/>
<path d="M14.3056 1.26612C14.3141 1.26534 14.3216 1.26022 14.3254 1.25261C14.3541 1.19336 14.41 1.15156 14.4753 1.1405C14.4881 1.13755 14.4966 1.12567 14.4952 1.11278C14.4938 1.0999 14.4829 1.09006 14.4699 1.08984C14.3873 1.10254 14.3163 1.15452 14.2797 1.22897C14.2764 1.23495 14.2757 1.242 14.2778 1.2485C14.2798 1.25501 14.2845 1.2604 14.2906 1.26342C14.2952 1.26597 14.3005 1.26692 14.3056 1.26612Z" fill="#263238"/>
<path fill-rule="evenodd" clip-rule="evenodd" d="M15.8076 20.3056C15.7608 20.3179 15.7128 20.3248 15.6645 20.3262C15.6271 20.3287 15.59 20.3182 15.5589 20.2964C15.5395 20.2785 15.5296 20.252 15.5323 20.2252C15.5325 20.2091 15.5411 20.1944 15.5548 20.1868C15.613 20.1557 15.7813 20.2616 15.8096 20.2794C15.8104 20.2799 15.8111 20.2803 15.8117 20.2807C15.8158 20.2838 15.8179 20.289 15.8172 20.2942C15.8165 20.2997 15.8127 20.3042 15.8076 20.3056ZM15.7666 20.2871C15.7677 20.2869 15.7688 20.2867 15.77 20.2864V20.2893C15.7689 20.2886 15.7677 20.2879 15.7666 20.2871ZM15.5757 20.2758C15.6054 20.3018 15.6749 20.3056 15.7666 20.2871C15.6954 20.2415 15.5997 20.1942 15.5662 20.211C15.5608 20.2145 15.5576 20.2208 15.558 20.2274C15.5554 20.2457 15.5621 20.264 15.5757 20.2758Z" fill="#FF7171"/>
<path fill-rule="evenodd" clip-rule="evenodd" d="M15.8125 20.2993C15.81 20.3 15.8074 20.3 15.805 20.2993L15.7989 20.3C15.7423 20.2696 15.6333 20.1507 15.6448 20.09C15.6487 20.0707 15.6659 20.0568 15.6857 20.0569C15.7056 20.0539 15.7258 20.0599 15.7409 20.0731C15.8043 20.1244 15.8179 20.2811 15.8179 20.2878C15.8186 20.2924 15.8165 20.2969 15.8125 20.2993ZM15.724 20.0927C15.7158 20.0852 15.7051 20.0811 15.694 20.0812H15.6886C15.6695 20.0832 15.6695 20.0913 15.6695 20.0947C15.6627 20.1271 15.7322 20.2197 15.7887 20.2622C15.7851 20.2005 15.7625 20.1413 15.724 20.0927Z" fill="#FF7171"/>
<path fill-rule="evenodd" clip-rule="evenodd" d="M11.0114 19.6624C11.0095 19.6669 11.0054 19.6699 11.0005 19.6705L10.9985 19.6712C10.9085 19.6651 10.7518 19.6469 10.7075 19.5793C10.6941 19.5593 10.6916 19.5341 10.7007 19.5118C10.7049 19.4982 10.716 19.4877 10.73 19.4841C10.8036 19.4659 10.9876 19.6293 11.008 19.6482C11.012 19.6518 11.0134 19.6574 11.0114 19.6624ZM10.9619 19.6436C10.8883 19.5795 10.7854 19.5086 10.7417 19.5086L10.7363 19.5113C10.7307 19.5127 10.7265 19.5172 10.7254 19.5227C10.7191 19.5371 10.7206 19.5537 10.7295 19.5666C10.754 19.6038 10.8399 19.6315 10.9619 19.6436Z" fill="#FF7171"/>
<path fill-rule="evenodd" clip-rule="evenodd" d="M11.004 19.6705H11.0006C10.9972 19.6708 10.9939 19.6701 10.991 19.6685C10.9331 19.6226 10.8391 19.4767 10.8649 19.4199C10.8711 19.4064 10.8854 19.3923 10.9208 19.3977C10.9468 19.4016 10.97 19.416 10.9849 19.4375C11.0321 19.5025 11.0164 19.6266 11.0128 19.6552C11.0124 19.6584 11.0121 19.6605 11.0121 19.6611C11.0113 19.6654 11.0082 19.669 11.004 19.6705ZM10.9166 19.4207H10.903C10.8933 19.4213 10.8901 19.4256 10.889 19.4271C10.8888 19.4273 10.8887 19.4274 10.8887 19.4275C10.873 19.4626 10.935 19.5741 10.9895 19.6301C10.9994 19.569 10.9904 19.5064 10.9636 19.4505C10.9529 19.4344 10.9358 19.4235 10.9166 19.4207Z" fill="#FF7171"/>
<path d="M16.7869 4.06631C16.866 4.41819 16.9328 4.76805 16.9914 5.12195C17.05 5.47585 17.1024 5.83043 17.1433 6.18974L17.1576 6.32482L17.1658 6.40857C17.1721 6.47416 17.1661 6.54032 17.1481 6.60376C17.1238 6.69193 17.0749 6.77153 17.007 6.83339C16.9503 6.88393 16.8827 6.9211 16.8094 6.94213C16.7242 6.96594 16.635 6.97305 16.547 6.96306C16.4327 6.95061 16.3202 6.92523 16.2118 6.88742C16.1143 6.85433 16.0243 6.81988 15.9392 6.77868C15.7682 6.70127 15.6014 6.61493 15.4396 6.52001C15.2795 6.42613 15.1262 6.32955 14.9735 6.21946L15.1677 5.86083C15.4982 5.97429 15.8349 6.09586 16.1579 6.18366C16.2383 6.20595 16.3181 6.22486 16.3937 6.23837C16.457 6.25268 16.5217 6.25948 16.5866 6.25863C16.6063 6.25863 16.622 6.24985 16.5907 6.25525C16.5601 6.26306 16.5321 6.27866 16.5096 6.30051C16.4742 6.33159 16.4482 6.37181 16.4346 6.41667C16.4288 6.43717 16.4254 6.45824 16.4244 6.47948C16.4244 6.49097 16.4244 6.47273 16.421 6.46328L16.4148 6.43086L16.3903 6.30253C16.3235 5.95943 16.2554 5.61521 16.1859 5.26986C16.1177 4.92474 16.0455 4.57759 15.9814 4.23381L16.7869 4.06631Z" fill="#FF8B7B"/>
<path d="M16.8272 3.78062C17.1843 4.15951 17.2163 5.32321 17.2163 5.32321L16.1825 5.80611C16.1825 5.80611 15.8472 5.06656 15.8363 4.39725C15.8254 3.63811 16.4694 3.39902 16.8272 3.78062Z" fill="#FF7171"/>
<path opacity="0.2" d="M16.8272 3.78062C17.1843 4.15951 17.2163 5.32321 17.2163 5.32321L16.1825 5.80611C16.1825 5.80611 15.8472 5.06656 15.8363 4.39725C15.8254 3.63811 16.4694 3.39902 16.8272 3.78062Z" fill="black"/>
<path d="M13.1213 5.19488C13.1154 5.19483 13.1095 5.19345 13.1043 5.19083C13.0881 5.18118 13.0826 5.16048 13.092 5.14423L13.6372 4.21151C13.6474 4.19751 13.6667 4.19348 13.6818 4.20218C13.697 4.21088 13.703 4.2295 13.6958 4.24528L13.154 5.178C13.1473 5.18937 13.1346 5.19592 13.1213 5.19488Z" fill="#263238"/>
<path d="M14.8127 7.78904L12.7526 7.49187C12.6656 7.47877 12.5987 7.40905 12.5897 7.32235L12.4534 4.50394C12.4514 4.46584 12.4675 4.429 12.497 4.40444C12.5264 4.37988 12.5658 4.37046 12.6033 4.379L14.6634 4.67549C14.7504 4.68926 14.8174 4.75893 14.827 4.84569L14.9599 7.66409C14.9617 7.70161 14.9459 7.73786 14.9172 7.76229C14.8884 7.78672 14.8498 7.7966 14.8127 7.78904Z" fill="white"/>
<path d="M14.7664 7.81743L12.7063 7.5189C12.6192 7.50586 12.552 7.43619 12.5427 7.34938L12.4098 4.53098C12.4075 4.49294 12.4235 4.45606 12.4529 4.43147C12.4822 4.40687 12.5216 4.39745 12.5591 4.40603L14.6192 4.70253C14.7065 4.71564 14.7738 4.78566 14.7827 4.87273L14.919 7.69045C14.9223 7.72959 14.9062 7.76788 14.8759 7.79313C14.8455 7.81838 14.8047 7.82744 14.7664 7.81743Z" fill="#263238"/>
<path d="M15.2072 5.87096L14.7227 5.6008L14.6661 6.29105C14.6661 6.29105 15.1295 6.43018 15.2311 6.19447L15.2072 5.87096Z" fill="#FF8B7B"/>
<path d="M14.183 5.72439L14.2512 6.24039L14.6662 6.29172L14.7228 5.60147L14.183 5.72439Z" fill="#FF8B7B"/>
</svg>
