<svg width="23" height="21" viewBox="0 0 23 21" fill="none" xmlns="http://www.w3.org/2000/svg">
<rect x="0.932983" y="9.66409" width="21.1606" height="0.760787" fill="#407BFF"/>
<rect opacity="0.3" x="0.932983" y="9.66409" width="5.66337" height="0.760787" fill="white"/>
<path d="M6.68663 10.4249H6.19397L6.45182 19.96H6.68663H6.92143L7.17991 10.4249H6.68663Z" fill="#407BFF"/>
<path opacity="0.3" d="M6.45184 19.96H6.68665V10.6296L6.20209 10.7182L6.45184 19.96Z" fill="white"/>
<path d="M2.01732 10.4249H1.52466L1.78251 19.96H2.01732H2.25212L2.50997 10.4249H2.01732Z" fill="#407BFF"/>
<path opacity="0.3" d="M1.78248 19.96H2.01729V10.6296L1.5321 10.7182L1.78248 19.96Z" fill="white"/>
<path d="M21.0092 10.4249H20.5165L20.7744 19.96H21.0092H21.244L21.5025 10.4249H21.0092Z" fill="#407BFF"/>
<path opacity="0.3" d="M20.7744 19.96H21.0092V10.6296L20.5247 10.7182L20.7744 19.96Z" fill="white"/>
<path d="M16.3398 10.4249H15.8472L16.105 19.96H16.3398H16.5746L16.8325 10.4249H16.3398Z" fill="#407BFF"/>
<path opacity="0.3" d="M16.105 19.96H16.3398V10.6296L15.8553 10.7182L16.105 19.96Z" fill="white"/>
<path d="M10.9773 5.59118H5.9461C5.86328 5.58789 5.7839 5.62451 5.73253 5.68969C5.68116 5.75487 5.664 5.84074 5.68638 5.92071L6.35655 9.1255C6.40086 9.31174 6.56303 9.44597 6.75391 9.4544H11.7889C11.8715 9.45763 11.9508 9.42109 12.0021 9.35607C12.0534 9.29106 12.0707 9.20538 12.0486 9.1255L11.3778 5.92071C11.3334 5.73314 11.1695 5.59832 10.9773 5.59118Z" fill="#263238"/>
<path d="M6.79747 9.27155C6.66873 9.26284 6.56017 9.17219 6.52841 9.04687L5.85824 5.84208C5.84663 5.79912 5.85511 5.7532 5.88129 5.71726C5.90845 5.68648 5.94809 5.66972 5.98904 5.6717H11.024C11.1527 5.6804 11.2613 5.77106 11.293 5.89638L11.9632 9.10117C11.9748 9.14412 11.9663 9.19004 11.9402 9.22599C11.9132 9.257 11.8734 9.27381 11.8324 9.27155H6.79747Z" fill="white"/>
<path opacity="0.4" d="M10.5962 9.01503L9.96089 5.97625C9.95366 5.93983 9.96299 5.90207 9.98635 5.87324C10.0097 5.8444 10.0447 5.82749 10.0817 5.82709H10.8989C10.9572 5.82754 11.0074 5.86852 11.0197 5.9257L11.655 8.96198C11.6622 8.9984 11.6529 9.03616 11.6295 9.06499C11.6062 9.09383 11.5712 9.11074 11.5342 9.11114H10.717C10.6594 9.11096 10.6094 9.07121 10.5962 9.01503Z" fill="#407BFF"/>
<path d="M6.2774 6.09299L6.25 5.9613H7.25898L7.28639 6.09299H6.2774Z" fill="#407BFF"/>
<path d="M6.74329 6.42002L6.71588 6.28833H8.48409L8.51212 6.42002H6.74329Z" fill="#EBEBEB"/>
<path d="M6.83674 6.74643L6.80872 6.61475H8.79118L8.81858 6.74643H6.83674Z" fill="#EBEBEB"/>
<path d="M6.92957 7.07343L6.90216 6.94174H8.49785L8.52587 7.07343H6.92957Z" fill="#EBEBEB"/>
<path d="M6.58448 7.60334L6.55646 7.47165H7.19486L7.22226 7.60334H6.58448Z" fill="#407BFF"/>
<path d="M7.04974 7.92975L7.02234 7.79807H7.79963L7.82766 7.92975H7.04974Z" fill="#EBEBEB"/>
<path d="M8.01387 7.92975L7.98584 7.79807H8.76375L8.79116 7.92975H8.01387Z" fill="#EBEBEB"/>
<path d="M7.14319 8.25675L7.11578 8.12506H9.74412L9.77152 8.25675H7.14319Z" fill="#EBEBEB"/>
<path d="M7.23596 8.58316L7.20856 8.45148H9.21282L9.24022 8.58316H7.23596Z" fill="#EBEBEB"/>
<path d="M13.3278 9.43506H6.7034C6.52278 9.43506 6.40569 9.53804 6.44368 9.66411H13.7252C13.6878 9.53804 13.5084 9.43506 13.3278 9.43506Z" fill="#263238"/>
<path opacity="0.1" d="M4.52667 4.78109L3.89076 1.74418C3.88374 1.70785 3.89317 1.67027 3.9165 1.64159C3.93983 1.61291 3.97466 1.59608 4.01159 1.59564H9.15615C9.21431 1.59603 9.26447 1.6367 9.27698 1.69363L9.91288 4.72804C9.92011 4.76446 9.91078 4.80222 9.88742 4.83105C9.86407 4.85988 9.82911 4.8768 9.79205 4.8772H4.6475C4.58989 4.87702 4.53992 4.83727 4.52667 4.78109Z" fill="#407BFF"/>
<path d="M6.35525 1.6955H5.27527L5.25098 1.5788H6.33096L6.35525 1.6955Z" fill="#407BFF"/>
<path opacity="0.4" d="M6.17964 1.88151H5.74615L5.72186 1.7648H6.15535L6.17964 1.88151Z" fill="#407BFF"/>
<path opacity="0.4" d="M6.90095 1.88151H6.23327L6.20898 1.7648H6.87666L6.90095 1.88151Z" fill="#407BFF"/>
<path opacity="0.4" d="M7.19176 2.06684H5.78479L5.7605 1.95013H7.16809L7.19176 2.06684Z" fill="#407BFF"/>
<path opacity="0.4" d="M7.01302 2.25285H5.82342L5.79913 2.13614H6.98873L7.01302 2.25285Z" fill="#407BFF"/>
<path opacity="0.4" d="M7.80216 4.22565H7.0448L7.06909 4.34173H7.82645L7.80216 4.22565Z" fill="#407BFF"/>
<path d="M6.85797 3.97102H5.74872L5.72443 3.85431H6.83368L6.85797 3.97102Z" fill="#407BFF"/>
<path opacity="0.4" d="M7.30386 4.41101H6.27246L6.29675 4.52772H7.32815L7.30386 4.41101Z" fill="#407BFF"/>
<path opacity="0.4" d="M6.99118 4.22565H6.23383L6.25812 4.34173H7.01547L6.99118 4.22565Z" fill="#407BFF"/>
<path opacity="0.4" d="M7.70997 4.03967H6.19525L6.21954 4.15638H7.73426L7.70997 4.03967Z" fill="#407BFF"/>
<path d="M6.31726 0.829249H5.09527L5.07098 0.713165H6.29297L6.31726 0.829249Z" fill="#407BFF"/>
<path opacity="0.4" d="M6.92086 1.26987H5.57306L5.59735 1.38658H6.94453L6.92086 1.26987Z" fill="#407BFF"/>
<path opacity="0.4" d="M6.65115 1.0845H5.53442L5.55871 1.20059H6.67544L6.65115 1.0845Z" fill="#407BFF"/>
<path opacity="0.4" d="M6.72519 0.898529H5.49573L5.52002 1.01524H6.74948L6.72519 0.898529Z" fill="#407BFF"/>
<path d="M6.30358 2.55491H5.45404L5.42975 2.4382H6.27929L6.30358 2.55491Z" fill="#407BFF"/>
<path opacity="0.4" d="M7.63768 2.99487H5.97784L6.00213 3.11158H7.66135L7.63768 2.99487Z" fill="#407BFF"/>
<path opacity="0.4" d="M6.62687 2.80954H5.93927L5.96356 2.92625H6.65116L6.62687 2.80954Z" fill="#407BFF"/>
<path opacity="0.4" d="M7.37297 2.80954H6.68536L6.70965 2.92625H7.39726L7.37297 2.80954Z" fill="#407BFF"/>
<path opacity="0.4" d="M7.41535 2.62354H5.90063L5.92493 2.74024H7.43902L7.41535 2.62354Z" fill="#407BFF"/>
<path opacity="0.4" d="M7.41222 3.55222H6.09369L6.11798 3.6683H7.43651L7.41222 3.55222Z" fill="#407BFF"/>
<path opacity="0.4" d="M6.43878 3.36627H6.05511L6.07941 3.48298H6.46244L6.43878 3.36627Z" fill="#407BFF"/>
<path opacity="0.4" d="M7.03855 3.36627H6.49109L6.51538 3.48298H7.06284L7.03855 3.36627Z" fill="#407BFF"/>
<path opacity="0.4" d="M7.5312 3.18088H6.01648L6.04077 3.29696H7.55549L7.5312 3.18088Z" fill="#407BFF"/>
<path opacity="0.4" d="M8.72394 3.14967H8.18146L8.15717 3.03296H8.70027L8.72394 3.14967Z" fill="#407BFF"/>
<path opacity="0.4" d="M9.62703 3.14967H8.7912L8.76691 3.03296H9.60274L9.62703 3.14967Z" fill="#407BFF"/>
<path opacity="0.4" d="M9.98201 3.33567H8.22003L8.19574 3.21896H9.95772L9.98201 3.33567Z" fill="#407BFF"/>
<path opacity="0.4" d="M9.74785 3.52101H8.25867L8.23438 3.4043H9.72356L9.74785 3.52101Z" fill="#407BFF"/>
<path opacity="0.4" d="M10.4149 2.41138H8.72766L8.75195 2.52746H10.4392L10.4149 2.41138Z" fill="#407BFF"/>
<path opacity="0.4" d="M10.0873 2.22537H8.68903L8.71332 2.34208H10.1109L10.0873 2.22537Z" fill="#407BFF"/>
<path d="M9.83437 2.04004H8.29474L8.31903 2.15612H9.85866L9.83437 2.04004Z" fill="#407BFF"/>
<path opacity="0.4" d="M10.4908 4.26373H8.41309L8.43738 4.38044H10.5151L10.4908 4.26373Z" fill="#407BFF"/>
<path opacity="0.4" d="M9.23526 4.07834H8.37451L8.3988 4.19442H9.25955L9.23526 4.07834Z" fill="#407BFF"/>
<path opacity="0.4" d="M10.1695 4.07834H9.30878L9.33307 4.19442H10.1938L10.1695 4.07834Z" fill="#407BFF"/>
<path opacity="0.4" d="M10.2318 3.8924H8.33588L8.36017 4.0091H10.2561L10.2318 3.8924Z" fill="#407BFF"/>
<path opacity="0.4" d="M10.1794 4.8204H8.52893L8.55322 4.93711H10.2037L10.1794 4.8204Z" fill="#407BFF"/>
<path opacity="0.4" d="M8.97056 4.63507H8.49036L8.51465 4.75178H8.99485L8.97056 4.63507Z" fill="#407BFF"/>
<path opacity="0.4" d="M9.72167 4.63507H9.03656L9.06085 4.75178H9.74596L9.72167 4.63507Z" fill="#407BFF"/>
<path opacity="0.4" d="M10.3482 4.44907H8.45172L8.47601 4.56577H10.3719L10.3482 4.44907Z" fill="#407BFF"/>
<path opacity="0.4" d="M5.29834 4.96457H4.00659L4.03088 5.08128H5.32263L5.29834 4.96457Z" fill="#407BFF"/>
<path opacity="0.4" d="M4.91652 4.77924H3.96796L3.99225 4.89532H4.94019L4.91652 4.77924Z" fill="#407BFF"/>
<path opacity="0.4" d="M5.93116 4.77924H4.98322L5.00751 4.89532H5.95607L5.93116 4.77924Z" fill="#407BFF"/>
<path opacity="0.4" d="M5.82589 4.59323H3.92938L3.95367 4.70994H5.84956L5.82589 4.59323Z" fill="#407BFF"/>
<path d="M20.3303 8.45148H19.5306L19.624 9.66412H20.2369L20.3303 8.45148Z" fill="#407BFF"/>
<path opacity="0.4" d="M20.3303 8.45148H19.5306L19.624 9.66412H20.2369L20.3303 8.45148Z" fill="white"/>
<path d="M2.90233 7.60953H4.05207L3.65969 9.66409H2.50995L2.90233 7.60953Z" fill="#263238"/>
<path d="M4.36657 7.05908H2.74286L3.19752 9.66411H4.82124L4.36657 7.05908Z" fill="#407BFF"/>
<path d="M2.64697 7.05908H2.74289L3.19755 9.66411H3.10164L2.64697 7.05908Z" fill="#407BFF"/>
<path opacity="0.3" d="M2.64697 7.05908H2.74289L3.19755 9.66411H3.10164L2.64697 7.05908Z" fill="black"/>
<path d="M3.43117 9.38516L3.07367 7.33746H4.13372L4.4906 9.38516H3.43117Z" fill="white"/>
<path opacity="0.6" d="M4.44007 9.38516L4.08319 7.33746H4.13364L4.49052 9.38516H4.44007Z" fill="#407BFF"/>
<path d="M12.4619 3.77663C12.485 3.82673 12.4775 3.87996 12.4445 3.89499C12.4114 3.91002 12.3666 3.88184 12.3435 3.83236C12.3204 3.78289 12.3285 3.72903 12.361 3.714C12.3934 3.69897 12.4389 3.72402 12.4619 3.77663Z" fill="#263238"/>
<path d="M12.4819 3.87555C12.4819 3.87555 12.5018 4.21748 12.4407 4.41538C12.5654 4.45734 12.7001 4.35276 12.7001 4.35276L12.4819 3.87555Z" fill="#FF5652"/>
<path d="M12.4682 3.36269C12.4629 3.36709 12.4563 3.36972 12.4495 3.3702C12.3672 3.37239 12.2909 3.41407 12.2444 3.4823C12.2388 3.49279 12.228 3.4994 12.2161 3.49952C12.2043 3.49965 12.1933 3.49329 12.1875 3.48292C12.1817 3.47255 12.182 3.45983 12.1883 3.44974C12.2456 3.36234 12.3416 3.30838 12.4457 3.30507C12.4597 3.3043 12.4726 3.31262 12.4777 3.32572C12.4828 3.33882 12.479 3.35373 12.4682 3.36269Z" fill="#263238"/>
<path d="M14.298 3.69897C14.4907 4.36907 14.7058 4.88886 14.9682 5.1857C14.9682 5.1857 14.9732 5.71238 14.0798 5.96289C13.0973 6.23844 13.4739 5.60467 13.4739 5.60467C13.9726 5.32599 13.9252 4.90514 13.5499 4.74482L14.298 3.69897Z" fill="#FF8B7B"/>
<path d="M15.1764 5.0573C15.159 4.81243 15.1359 4.53312 14.9857 4.52561C14.8198 4.51809 13.8597 4.94896 13.6546 5.25269C13.4495 5.55643 13.8504 5.8539 13.8504 5.8539L15.1764 5.0573Z" fill="#263238"/>
<path d="M13.2113 8.8493L12.3821 8.82175L12.3971 9.51939C12.3971 9.51939 13.1203 9.44424 13.1521 9.25324L13.2113 8.8493Z" fill="#FF8B7B"/>
<path d="M11.9439 9.16429L11.8566 9.52126L12.3971 9.52001L12.3822 8.82236L11.9439 9.16429Z" fill="#FF8B7B"/>
<path d="M16.5392 5.95038L16.5217 6.12949C16.5161 6.1871 16.5086 6.24346 16.5011 6.30045C16.4868 6.41381 16.4687 6.52716 16.4494 6.63988C16.412 6.86596 16.3634 7.09079 16.3073 7.31687C16.2502 7.54728 16.1811 7.7745 16.1003 7.9976C16.0573 8.11221 16.0124 8.22681 15.9588 8.3433C15.9047 8.46548 15.8422 8.58372 15.7717 8.69713C15.7549 8.72657 15.7337 8.75976 15.7131 8.78731C15.6925 8.81487 15.6726 8.84994 15.6508 8.87875C15.629 8.90755 15.6059 8.94137 15.5772 8.9708L15.5367 9.01715C15.5222 9.03425 15.5068 9.05055 15.4906 9.066C15.3656 9.18893 15.2191 9.28765 15.0585 9.3572C14.8121 9.46338 14.5506 9.52995 14.2836 9.55447C14.162 9.56888 14.0417 9.57451 13.9239 9.57765C13.806 9.58078 13.6882 9.57765 13.5722 9.57138C13.4563 9.56512 13.3416 9.5551 13.2275 9.54132C13.1134 9.52755 13.0024 9.50938 12.8815 9.48496L12.9014 8.83052C13.2995 8.7606 13.693 8.66649 14.0797 8.54871C14.1657 8.52062 14.2502 8.48801 14.3328 8.45101C14.4032 8.4212 14.4704 8.38449 14.5336 8.34142C14.5703 8.31919 14.6015 8.28876 14.6246 8.25249L14.6427 8.22368C14.6511 8.21138 14.6588 8.19863 14.6657 8.18548C14.6746 8.17111 14.6828 8.15626 14.6901 8.14102C14.6982 8.12473 14.7069 8.1097 14.715 8.09154C14.7882 7.93092 14.8485 7.76463 14.8952 7.5943C14.9463 7.41018 14.9943 7.21854 15.033 7.02002C15.0716 6.8215 15.109 6.6211 15.1433 6.41882L15.1907 6.11446L15.2337 5.81824L16.5392 5.95038Z" fill="#407BFF"/>
<path opacity="0.2" d="M16.5392 5.95038L16.5217 6.12949C16.5161 6.1871 16.5086 6.24346 16.5011 6.30045C16.4868 6.41381 16.4687 6.52716 16.4494 6.63988C16.412 6.86596 16.3634 7.09079 16.3073 7.31687C16.2502 7.54728 16.1811 7.7745 16.1003 7.9976C16.0573 8.11221 16.0124 8.22681 15.9588 8.3433C15.9047 8.46548 15.8422 8.58372 15.7717 8.69713C15.7549 8.72657 15.7337 8.75976 15.7131 8.78731C15.6925 8.81487 15.6726 8.84994 15.6508 8.87875C15.629 8.90755 15.6059 8.94137 15.5772 8.9708L15.5367 9.01715C15.5222 9.03425 15.5068 9.05055 15.4906 9.066C15.3656 9.18893 15.2191 9.28765 15.0585 9.3572C14.8121 9.46338 14.5506 9.52995 14.2836 9.55447C14.162 9.56888 14.0417 9.57451 13.9239 9.57765C13.806 9.58078 13.6882 9.57765 13.5722 9.57138C13.4563 9.56512 13.3416 9.5551 13.2275 9.54132C13.1134 9.52755 13.0024 9.50938 12.8815 9.48496L12.9014 8.83052C13.2995 8.7606 13.693 8.66649 14.0797 8.54871C14.1657 8.52062 14.2502 8.48801 14.3328 8.45101C14.4032 8.4212 14.4704 8.38449 14.5336 8.34142C14.5703 8.31919 14.6015 8.28876 14.6246 8.25249L14.6427 8.22368C14.6511 8.21138 14.6588 8.19863 14.6657 8.18548C14.6746 8.17111 14.6828 8.15626 14.6901 8.14102C14.6982 8.12473 14.7069 8.1097 14.715 8.09154C14.7882 7.93092 14.8485 7.76463 14.8952 7.5943C14.9463 7.41018 14.9943 7.21854 15.033 7.02002C15.0716 6.8215 15.109 6.6211 15.1433 6.41882L15.1907 6.11446L15.2337 5.81824L16.5392 5.95038Z" fill="black"/>
<path d="M12.8579 6.78263C13.167 8.12145 13.341 9.48817 13.3772 10.8621H17.0274C17.0474 10.4093 16.9713 7.85603 16.6041 6.01171C16.5383 5.67423 16.3398 5.37768 16.0535 5.1891C15.7672 5.00052 15.4173 4.93585 15.0829 5.0097L15.0655 5.01409C14.6097 5.11804 13.9558 5.28588 13.5692 5.43305L13.5536 5.43931C13.0189 5.64816 12.7212 6.2229 12.8579 6.78263Z" fill="#407BFF"/>
<path opacity="0.2" d="M13.0954 7.95375C13.1241 8.12973 13.1534 8.31636 13.1802 8.51175C13.4788 8.19862 13.5736 7.2392 13.5736 7.2392L13.0954 7.95375Z" fill="black"/>
<path d="M10.0629 8.89501L9.2344 8.81735L9.20697 9.51437C9.48607 9.59177 9.78486 9.50708 9.98253 9.29456L10.0629 8.89501Z" fill="#FF8B7B"/>
<path d="M8.84041 9.02276L8.57483 9.50185L9.20949 9.51437L9.23692 8.81735L8.84041 9.02276Z" fill="#FF8B7B"/>
<path d="M14.2275 6.46137C14.1701 6.57096 14.119 6.66803 14.0617 6.76823C14.0043 6.86843 13.9494 6.96613 13.8902 7.0632C13.773 7.25859 13.6514 7.45023 13.523 7.63998C13.2652 8.02857 12.9795 8.39778 12.6683 8.74469C12.5016 8.93146 12.3205 9.10464 12.1265 9.26261C12.1022 9.28327 12.0735 9.30331 12.0467 9.32523C12.0199 9.34715 11.9962 9.36469 11.9563 9.38786C11.9164 9.41103 11.8827 9.4342 11.8466 9.45424C11.8104 9.47428 11.773 9.49244 11.7362 9.50873C11.5987 9.5687 11.4548 9.61262 11.3073 9.63961C11.0493 9.6833 10.7864 9.6892 10.5268 9.65715C10.4052 9.64315 10.2844 9.62224 10.1652 9.59452C10.1057 9.58075 10.0471 9.56509 9.98936 9.54755C9.92702 9.53002 9.87652 9.5106 9.80981 9.48493L9.91268 8.83863C10.3042 8.7854 10.7275 8.71714 11.0193 8.58437C11.0841 8.55764 11.145 8.52248 11.2007 8.47979C11.2231 8.4643 11.244 8.44668 11.263 8.42718C11.2674 8.42155 11.2867 8.40464 11.3011 8.39086C11.3154 8.37708 11.3322 8.36393 11.3478 8.34765C11.4813 8.21482 11.6062 8.07363 11.7219 7.92493C11.9729 7.59966 12.2074 7.26189 12.4245 6.9129C12.5367 6.73567 12.6458 6.55531 12.7549 6.37432L12.9158 6.10252L13.071 5.83511L14.2275 6.46137Z" fill="#407BFF"/>
<path d="M13.2257 19.5332H12.5436L12.2001 17.9456H12.8828L13.2257 19.5332Z" fill="#FF8B7B"/>
<path d="M12.5056 19.3867H13.2724C13.2998 19.3876 13.3233 19.4064 13.3304 19.433L13.4651 20.043C13.4716 20.073 13.464 20.1044 13.4445 20.1281C13.4251 20.1518 13.3959 20.1652 13.3653 20.1645C13.0979 20.1601 12.9676 20.1444 12.6303 20.1444C12.4227 20.1444 12.1565 20.1657 11.8703 20.1657C11.5841 20.1657 11.5461 19.8814 11.6633 19.8557C12.1895 19.7399 12.2244 19.5808 12.3946 19.4286C12.4251 19.4013 12.4647 19.3863 12.5056 19.3867Z" fill="#263238"/>
<g opacity="0.2">
<path d="M12.8834 17.9463H12.2001L12.3909 18.8256L13.0605 18.7648L12.8834 17.9463Z" fill="black"/>
</g>
<path d="M14.0792 2.8936C14.3285 3.52737 14.5019 3.88622 14.3373 4.34651C14.0879 5.03853 13.2032 5.10867 12.7731 4.56132C12.3865 4.06846 12.0486 3.11467 12.5368 2.5905C12.7541 2.35421 13.0779 2.24796 13.3922 2.30972C13.7065 2.37149 13.9665 2.59246 14.0792 2.8936Z" fill="#FF8B7B"/>
<path d="M12.8809 3.84301C12.7787 3.98079 12.7001 4.08537 12.7001 4.08537C12.7001 4.08537 12.49 3.56119 12.5704 3.32071C12.4682 3.11718 12.2618 3.41716 12.1839 3.02074C12.106 2.62432 12.4433 2.19846 12.5704 2.11016C12.5836 2.15636 12.5894 2.20431 12.5879 2.25232C12.9316 1.97217 13.3683 1.83361 13.8098 1.86467C13.7729 1.9198 13.7494 1.98287 13.7413 2.04879C13.7413 2.04879 14.4813 2.17404 14.6496 2.59488C14.5901 2.56634 14.5273 2.54531 14.4626 2.53226C14.5982 2.72764 14.652 2.96877 14.6122 3.2036C14.5585 3.54607 14.5306 3.89212 14.5287 4.2388C14.5355 4.41666 14.0499 4.75672 13.7537 4.39349C13.4576 4.03026 12.8809 3.84301 12.8809 3.84301Z" fill="#263238"/>
<path d="M13.1895 3.7065C13.2281 3.85412 13.2171 4.01041 13.1583 4.15114C13.0791 4.33901 12.9164 4.29392 12.836 4.12984C12.763 3.98267 12.7163 3.70963 12.8453 3.57874C12.9744 3.44785 13.1409 3.52927 13.1895 3.7065Z" fill="#FF8B7B"/>
<path d="M14.4713 10.8596C14.4713 10.8596 11.3017 12.0144 11.2088 13.5418C11.0368 16.3556 12.182 18.5832 12.182 18.5832L13.2319 18.4705C13.2319 18.4705 13.0449 17.5649 12.9058 15.016C12.7306 11.8127 18.1427 15.0912 17.028 10.8596H14.4713Z" fill="#407BFF"/>
<path opacity="0.5" d="M14.4713 10.8596C14.4713 10.8596 11.3017 12.0144 11.2088 13.5418C11.0368 16.3556 12.182 18.5832 12.182 18.5832L13.2319 18.4705C13.2319 18.4705 13.0449 17.5649 12.9058 15.016C12.7306 11.8127 18.1427 15.0912 17.028 10.8596H14.4713Z" fill="white"/>
<path d="M11.8915 18.1949C11.8865 18.1949 12.0586 18.6634 12.0586 18.6634L13.3678 18.5343L13.3024 18.1085L11.8915 18.1949Z" fill="#407BFF"/>
<path d="M10.2775 19.6115H9.59482L9.39532 18.0233H10.078L10.2775 19.6115Z" fill="#FF8B7B"/>
<path d="M9.58979 19.386H10.3379C10.3657 19.3857 10.39 19.405 10.3959 19.4324L10.5318 20.0417C10.5398 20.072 10.5333 20.1043 10.514 20.1289C10.4948 20.1535 10.4651 20.1676 10.4339 20.167C10.1652 20.1626 9.77619 20.1475 9.43642 20.1482C9.04116 20.1482 8.96573 20.1701 8.50127 20.1707C8.22072 20.1707 8.14279 19.887 8.26 19.8576C8.79366 19.7399 8.96448 19.7267 9.4252 19.4405C9.47383 19.4071 9.5309 19.3882 9.58979 19.386Z" fill="#263238"/>
<path opacity="0.2" d="M9.39587 18.0239L9.50435 18.8888L10.1814 18.8424L10.0785 18.0239H9.39587Z" fill="black"/>
<path d="M13.3771 10.8596C13.3771 10.8596 8.18391 11.3224 8.24001 13.9426C8.29799 16.6681 9.3117 18.5062 9.3117 18.5062H10.3254C10.3254 18.5062 10.1334 17.0921 10.1677 14.4092C10.1777 13.6057 11.7949 13.3402 13.3734 13.2462C14.7375 13.1648 16.0143 12.3839 16.5442 11.117L16.6533 10.8596H13.3771Z" fill="#407BFF"/>
<path opacity="0.5" d="M13.3771 10.8596C13.3771 10.8596 8.18391 11.3224 8.24001 13.9426C8.29799 16.6681 9.3117 18.5062 9.3117 18.5062H10.3254C10.3254 18.5062 10.1334 17.0921 10.1677 14.4092C10.1777 13.6057 11.7949 13.3402 13.3734 13.2462C14.7375 13.1648 16.0143 12.3839 16.5442 11.117L16.6533 10.8596H13.3771Z" fill="white"/>
<path d="M9.07418 18.2325C9.06981 18.2325 9.24811 18.7034 9.24811 18.7034L10.4725 18.6151L10.4008 18.1892L9.07418 18.2325Z" fill="#407BFF"/>
<path d="M14.7406 7.91491L14.0817 10.4656C13.9132 11.1191 13.8281 11.7915 13.8286 12.4665V13.652C13.8286 13.9514 14.048 14.1944 14.3192 14.1944H17.697C17.9682 14.1944 18.1876 13.9514 18.1876 13.652V12.4665C18.1874 11.7915 18.2727 11.1191 18.4414 10.4656L19.023 8.21113C19.1128 7.86481 18.8771 7.52225 18.5511 7.52225H15.212C14.9839 7.52945 14.7899 7.69115 14.7406 7.91491Z" fill="#263238"/>
<path d="M10.5393 12.9594L10.6496 13.5919C10.7082 13.9245 10.9994 14.1944 11.3005 14.1944H15.0554C15.3566 14.1944 15.5542 13.9245 15.4956 13.5919L15.3852 12.9594C15.3185 12.5805 14.9875 12.2737 14.6446 12.2737H11.0424C10.697 12.2737 10.4732 12.5805 10.5393 12.9594Z" fill="#263238"/>
<path d="M15.4171 14.8294H13.4501L13.2581 14.1944H15.6091L15.4171 14.8294Z" fill="#407BFF"/>
<rect x="14.0823" y="14.8294" width="0.702614" height="4.72259" fill="#407BFF"/>
<path opacity="0.7" d="M14.7849 19.552H14.0823V14.9427L14.7849 15.0148V19.552Z" fill="white"/>
<path opacity="0.7" d="M14.6134 19.552H14.4457V14.9797L14.6134 14.9972V19.552Z" fill="white"/>
<path d="M16.0492 20.2822H12.8173C12.7786 20.2819 12.7446 20.2567 12.7327 20.2198C12.7208 20.1828 12.7338 20.1424 12.7649 20.1194L13.2774 19.7436C13.5238 19.5624 13.8211 19.4646 14.1265 19.4643H14.7406C15.0458 19.4646 15.3429 19.5625 15.5891 19.7436L16.1022 20.1194C16.1334 20.1425 16.1464 20.183 16.1343 20.2201C16.1223 20.2571 16.088 20.2821 16.0492 20.2822Z" fill="#407BFF"/>
</svg>
