<svg width="26" height="12" viewBox="0 0 26 12" fill="none" xmlns="http://www.w3.org/2000/svg">
<path fill-rule="evenodd" clip-rule="evenodd" d="M1.94278 0.837173C1.94278 1.11838 1.7147 1.34631 1.43374 1.34631C1.15258 1.34631 0.9245 1.11838 0.9245 0.837173C0.9245 0.555963 1.15258 0.328033 1.43374 0.328033C1.7147 0.328033 1.94278 0.555963 1.94278 0.837173Z" stroke="#68D585" stroke-width="0.145469"/>
<path fill-rule="evenodd" clip-rule="evenodd" d="M4.7067 0.837173C4.7067 1.11838 4.47862 1.34631 4.19765 1.34631C3.9165 1.34631 3.68842 1.11838 3.68842 0.837173C3.68842 0.555963 3.9165 0.328033 4.19765 0.328033C4.47862 0.328033 4.7067 0.555963 4.7067 0.837173Z" stroke="#68D585" stroke-width="0.145469"/>
<path fill-rule="evenodd" clip-rule="evenodd" d="M7.3251 0.837173C7.3251 1.11838 7.09703 1.34631 6.81606 1.34631C6.5349 1.34631 6.30682 1.11838 6.30682 0.837173C6.30682 0.555963 6.5349 0.328033 6.81606 0.328033C7.09703 0.328033 7.3251 0.555963 7.3251 0.837173Z" stroke="#68D585" stroke-width="0.145469"/>
<path fill-rule="evenodd" clip-rule="evenodd" d="M9.94357 0.837173C9.94357 1.11838 9.71569 1.34631 9.43453 1.34631C9.15337 1.34631 8.92529 1.11838 8.92529 0.837173C8.92529 0.555963 9.15337 0.328033 9.43453 0.328033C9.71569 0.328033 9.94357 0.555963 9.94357 0.837173Z" stroke="#68D585" stroke-width="0.145469"/>
<path fill-rule="evenodd" clip-rule="evenodd" d="M12.562 0.837173C12.562 1.11838 12.3341 1.34631 12.0528 1.34631C11.7716 1.34631 11.5437 1.11838 11.5437 0.837173C11.5437 0.555963 11.7716 0.328033 12.0528 0.328033C12.3341 0.328033 12.562 0.555963 12.562 0.837173Z" stroke="#68D585" stroke-width="0.145469"/>
<path fill-rule="evenodd" clip-rule="evenodd" d="M15.1805 0.837173C15.1805 1.11838 14.9525 1.34631 14.6713 1.34631C14.3901 1.34631 14.1622 1.11838 14.1622 0.837173C14.1622 0.555963 14.3901 0.328033 14.6713 0.328033C14.9525 0.328033 15.1805 0.555963 15.1805 0.837173Z" stroke="#68D585" stroke-width="0.145469"/>
<path fill-rule="evenodd" clip-rule="evenodd" d="M17.7989 0.837173C17.7989 1.11838 17.5709 1.34631 17.2899 1.34631C17.0085 1.34631 16.7806 1.11838 16.7806 0.837173C16.7806 0.555963 17.0085 0.328033 17.2899 0.328033C17.5709 0.328033 17.7989 0.555963 17.7989 0.837173Z" stroke="#68D585" stroke-width="0.145469"/>
<path fill-rule="evenodd" clip-rule="evenodd" d="M20.4173 0.837173C20.4173 1.11838 20.1892 1.34631 19.9083 1.34631C19.6269 1.34631 19.399 1.11838 19.399 0.837173C19.399 0.555963 19.6269 0.328033 19.9083 0.328033C20.1892 0.328033 20.4173 0.555963 20.4173 0.837173Z" stroke="#68D585" stroke-width="0.145469"/>
<path fill-rule="evenodd" clip-rule="evenodd" d="M23.0357 0.837173C23.0357 1.11838 22.8077 1.34631 22.5267 1.34631C22.2455 1.34631 22.0175 1.11838 22.0175 0.837173C22.0175 0.555963 22.2455 0.328033 22.5267 0.328033C22.8077 0.328033 23.0357 0.555963 23.0357 0.837173Z" stroke="#68D585" stroke-width="0.145469"/>
<path fill-rule="evenodd" clip-rule="evenodd" d="M25.6541 0.837173C25.6541 1.11838 25.4261 1.34631 25.1451 1.34631C24.8639 1.34631 24.6359 1.11838 24.6359 0.837173C24.6359 0.555963 24.8639 0.328033 25.1451 0.328033C25.4261 0.328033 25.6541 0.555963 25.6541 0.837173Z" stroke="#68D585" stroke-width="0.145469"/>
<path fill-rule="evenodd" clip-rule="evenodd" d="M1.94278 3.45561C1.94278 3.73682 1.7147 3.96475 1.43374 3.96475C1.15258 3.96475 0.9245 3.73682 0.9245 3.45561C0.9245 3.1744 1.15258 2.94647 1.43374 2.94647C1.7147 2.94647 1.94278 3.1744 1.94278 3.45561Z" stroke="#68D585" stroke-width="0.145469"/>
<path fill-rule="evenodd" clip-rule="evenodd" d="M4.7067 3.45561C4.7067 3.73682 4.47862 3.96475 4.19765 3.96475C3.9165 3.96475 3.68842 3.73682 3.68842 3.45561C3.68842 3.1744 3.9165 2.94647 4.19765 2.94647C4.47862 2.94647 4.7067 3.1744 4.7067 3.45561Z" stroke="#68D585" stroke-width="0.145469"/>
<path fill-rule="evenodd" clip-rule="evenodd" d="M7.3251 3.45561C7.3251 3.73682 7.09703 3.96475 6.81606 3.96475C6.5349 3.96475 6.30682 3.73682 6.30682 3.45561C6.30682 3.1744 6.5349 2.94647 6.81606 2.94647C7.09703 2.94647 7.3251 3.1744 7.3251 3.45561Z" stroke="#68D585" stroke-width="0.145469"/>
<path fill-rule="evenodd" clip-rule="evenodd" d="M9.94357 3.45561C9.94357 3.73682 9.71569 3.96475 9.43453 3.96475C9.15337 3.96475 8.92529 3.73682 8.92529 3.45561C8.92529 3.1744 9.15337 2.94647 9.43453 2.94647C9.71569 2.94647 9.94357 3.1744 9.94357 3.45561Z" stroke="#68D585" stroke-width="0.145469"/>
<path fill-rule="evenodd" clip-rule="evenodd" d="M12.562 3.45561C12.562 3.73682 12.3341 3.96475 12.0528 3.96475C11.7716 3.96475 11.5437 3.73682 11.5437 3.45561C11.5437 3.1744 11.7716 2.94647 12.0528 2.94647C12.3341 2.94647 12.562 3.1744 12.562 3.45561Z" stroke="#68D585" stroke-width="0.145469"/>
<path fill-rule="evenodd" clip-rule="evenodd" d="M15.1805 3.45561C15.1805 3.73682 14.9525 3.96475 14.6713 3.96475C14.3901 3.96475 14.1622 3.73682 14.1622 3.45561C14.1622 3.1744 14.3901 2.94647 14.6713 2.94647C14.9525 2.94647 15.1805 3.1744 15.1805 3.45561Z" stroke="#68D585" stroke-width="0.145469"/>
<path fill-rule="evenodd" clip-rule="evenodd" d="M17.7989 3.45561C17.7989 3.73682 17.5709 3.96475 17.2899 3.96475C17.0085 3.96475 16.7806 3.73682 16.7806 3.45561C16.7806 3.1744 17.0085 2.94647 17.2899 2.94647C17.5709 2.94647 17.7989 3.1744 17.7989 3.45561Z" stroke="#68D585" stroke-width="0.145469"/>
<path fill-rule="evenodd" clip-rule="evenodd" d="M20.4173 3.45561C20.4173 3.73682 20.1892 3.96475 19.9083 3.96475C19.6269 3.96475 19.399 3.73682 19.399 3.45561C19.399 3.1744 19.6269 2.94647 19.9083 2.94647C20.1892 2.94647 20.4173 3.1744 20.4173 3.45561Z" stroke="#68D585" stroke-width="0.145469"/>
<path fill-rule="evenodd" clip-rule="evenodd" d="M23.0357 3.45561C23.0357 3.73682 22.8077 3.96475 22.5267 3.96475C22.2455 3.96475 22.0175 3.73682 22.0175 3.45561C22.0175 3.1744 22.2455 2.94647 22.5267 2.94647C22.8077 2.94647 23.0357 3.1744 23.0357 3.45561Z" stroke="#68D585" stroke-width="0.145469"/>
<path fill-rule="evenodd" clip-rule="evenodd" d="M25.6541 3.45561C25.6541 3.73682 25.4261 3.96475 25.1451 3.96475C24.8639 3.96475 24.6359 3.73682 24.6359 3.45561C24.6359 3.1744 24.8639 2.94647 25.1451 2.94647C25.4261 2.94647 25.6541 3.1744 25.6541 3.45561Z" stroke="#68D585" stroke-width="0.145469"/>
<path fill-rule="evenodd" clip-rule="evenodd" d="M1.94278 6.07402C1.94278 6.35523 1.7147 6.58316 1.43374 6.58316C1.15258 6.58316 0.9245 6.35523 0.9245 6.07402C0.9245 5.79281 1.15258 5.56488 1.43374 5.56488C1.7147 5.56488 1.94278 5.79281 1.94278 6.07402Z" stroke="#68D585" stroke-width="0.145469"/>
<path fill-rule="evenodd" clip-rule="evenodd" d="M4.7067 6.07402C4.7067 6.35523 4.47862 6.58316 4.19765 6.58316C3.9165 6.58316 3.68842 6.35523 3.68842 6.07402C3.68842 5.79281 3.9165 5.56488 4.19765 5.56488C4.47862 5.56488 4.7067 5.79281 4.7067 6.07402Z" stroke="#68D585" stroke-width="0.145469"/>
<path fill-rule="evenodd" clip-rule="evenodd" d="M7.3251 6.07402C7.3251 6.35523 7.09703 6.58316 6.81606 6.58316C6.5349 6.58316 6.30682 6.35523 6.30682 6.07402C6.30682 5.79281 6.5349 5.56488 6.81606 5.56488C7.09703 5.56488 7.3251 5.79281 7.3251 6.07402Z" stroke="#68D585" stroke-width="0.145469"/>
<path fill-rule="evenodd" clip-rule="evenodd" d="M9.94357 6.07402C9.94357 6.35523 9.71569 6.58316 9.43453 6.58316C9.15337 6.58316 8.92529 6.35523 8.92529 6.07402C8.92529 5.79281 9.15337 5.56488 9.43453 5.56488C9.71569 5.56488 9.94357 5.79281 9.94357 6.07402Z" stroke="#68D585" stroke-width="0.145469"/>
<path fill-rule="evenodd" clip-rule="evenodd" d="M12.562 6.07402C12.562 6.35523 12.3341 6.58316 12.0528 6.58316C11.7716 6.58316 11.5437 6.35523 11.5437 6.07402C11.5437 5.79281 11.7716 5.56488 12.0528 5.56488C12.3341 5.56488 12.562 5.79281 12.562 6.07402Z" stroke="#68D585" stroke-width="0.145469"/>
<path fill-rule="evenodd" clip-rule="evenodd" d="M15.1805 6.07402C15.1805 6.35523 14.9525 6.58316 14.6713 6.58316C14.3901 6.58316 14.1622 6.35523 14.1622 6.07402C14.1622 5.79281 14.3901 5.56488 14.6713 5.56488C14.9525 5.56488 15.1805 5.79281 15.1805 6.07402Z" stroke="#68D585" stroke-width="0.145469"/>
<path fill-rule="evenodd" clip-rule="evenodd" d="M17.7989 6.07402C17.7989 6.35523 17.5709 6.58316 17.2899 6.58316C17.0085 6.58316 16.7806 6.35523 16.7806 6.07402C16.7806 5.79281 17.0085 5.56488 17.2899 5.56488C17.5709 5.56488 17.7989 5.79281 17.7989 6.07402Z" stroke="#68D585" stroke-width="0.145469"/>
<path fill-rule="evenodd" clip-rule="evenodd" d="M20.4173 6.07402C20.4173 6.35523 20.1892 6.58316 19.9083 6.58316C19.6269 6.58316 19.399 6.35523 19.399 6.07402C19.399 5.79281 19.6269 5.56488 19.9083 5.56488C20.1892 5.56488 20.4173 5.79281 20.4173 6.07402Z" stroke="#68D585" stroke-width="0.145469"/>
<path fill-rule="evenodd" clip-rule="evenodd" d="M23.0357 6.07402C23.0357 6.35523 22.8077 6.58316 22.5267 6.58316C22.2455 6.58316 22.0175 6.35523 22.0175 6.07402C22.0175 5.79281 22.2455 5.56488 22.5267 5.56488C22.8077 5.56488 23.0357 5.79281 23.0357 6.07402Z" stroke="#68D585" stroke-width="0.145469"/>
<path fill-rule="evenodd" clip-rule="evenodd" d="M25.6541 6.07402C25.6541 6.35523 25.4261 6.58316 25.1451 6.58316C24.8639 6.58316 24.6359 6.35523 24.6359 6.07402C24.6359 5.79281 24.8639 5.56488 25.1451 5.56488C25.4261 5.56488 25.6541 5.79281 25.6541 6.07402Z" stroke="#68D585" stroke-width="0.145469"/>
<path fill-rule="evenodd" clip-rule="evenodd" d="M1.94278 8.69246C1.94278 8.97367 1.7147 9.2016 1.43374 9.2016C1.15258 9.2016 0.9245 8.97367 0.9245 8.69246C0.9245 8.41125 1.15258 8.18332 1.43374 8.18332C1.7147 8.18332 1.94278 8.41125 1.94278 8.69246Z" stroke="#68D585" stroke-width="0.145469"/>
<path fill-rule="evenodd" clip-rule="evenodd" d="M4.7067 8.69246C4.7067 8.97367 4.47862 9.2016 4.19765 9.2016C3.9165 9.2016 3.68842 8.97367 3.68842 8.69246C3.68842 8.41125 3.9165 8.18332 4.19765 8.18332C4.47862 8.18332 4.7067 8.41125 4.7067 8.69246Z" stroke="#68D585" stroke-width="0.145469"/>
<path fill-rule="evenodd" clip-rule="evenodd" d="M7.3251 8.69246C7.3251 8.97367 7.09703 9.2016 6.81606 9.2016C6.5349 9.2016 6.30682 8.97367 6.30682 8.69246C6.30682 8.41125 6.5349 8.18332 6.81606 8.18332C7.09703 8.18332 7.3251 8.41125 7.3251 8.69246Z" stroke="#68D585" stroke-width="0.145469"/>
<path fill-rule="evenodd" clip-rule="evenodd" d="M9.94357 8.69246C9.94357 8.97367 9.71569 9.2016 9.43453 9.2016C9.15337 9.2016 8.92529 8.97367 8.92529 8.69246C8.92529 8.41125 9.15337 8.18332 9.43453 8.18332C9.71569 8.18332 9.94357 8.41125 9.94357 8.69246Z" stroke="#68D585" stroke-width="0.145469"/>
<path fill-rule="evenodd" clip-rule="evenodd" d="M12.562 8.69246C12.562 8.97367 12.3341 9.2016 12.0528 9.2016C11.7716 9.2016 11.5437 8.97367 11.5437 8.69246C11.5437 8.41125 11.7716 8.18332 12.0528 8.18332C12.3341 8.18332 12.562 8.41125 12.562 8.69246Z" stroke="#68D585" stroke-width="0.145469"/>
<path fill-rule="evenodd" clip-rule="evenodd" d="M15.1805 8.69246C15.1805 8.97367 14.9525 9.2016 14.6713 9.2016C14.3901 9.2016 14.1622 8.97367 14.1622 8.69246C14.1622 8.41125 14.3901 8.18332 14.6713 8.18332C14.9525 8.18332 15.1805 8.41125 15.1805 8.69246Z" stroke="#68D585" stroke-width="0.145469"/>
<path fill-rule="evenodd" clip-rule="evenodd" d="M17.7989 8.69246C17.7989 8.97367 17.5709 9.2016 17.2899 9.2016C17.0085 9.2016 16.7806 8.97367 16.7806 8.69246C16.7806 8.41125 17.0085 8.18332 17.2899 8.18332C17.5709 8.18332 17.7989 8.41125 17.7989 8.69246Z" stroke="#68D585" stroke-width="0.145469"/>
<path fill-rule="evenodd" clip-rule="evenodd" d="M20.4173 8.69246C20.4173 8.97367 20.1892 9.2016 19.9083 9.2016C19.6269 9.2016 19.399 8.97367 19.399 8.69246C19.399 8.41125 19.6269 8.18332 19.9083 8.18332C20.1892 8.18332 20.4173 8.41125 20.4173 8.69246Z" stroke="#68D585" stroke-width="0.145469"/>
<path fill-rule="evenodd" clip-rule="evenodd" d="M23.0357 8.69246C23.0357 8.97367 22.8077 9.2016 22.5267 9.2016C22.2455 9.2016 22.0175 8.97367 22.0175 8.69246C22.0175 8.41125 22.2455 8.18332 22.5267 8.18332C22.8077 8.18332 23.0357 8.41125 23.0357 8.69246Z" stroke="#68D585" stroke-width="0.145469"/>
<path fill-rule="evenodd" clip-rule="evenodd" d="M25.6541 8.69246C25.6541 8.97367 25.4261 9.2016 25.1451 9.2016C24.8639 9.2016 24.6359 8.97367 24.6359 8.69246C24.6359 8.41125 24.8639 8.18332 25.1451 8.18332C25.4261 8.18332 25.6541 8.41125 25.6541 8.69246Z" stroke="#68D585" stroke-width="0.145469"/>
<path fill-rule="evenodd" clip-rule="evenodd" d="M1.94278 11.311C1.94278 11.5922 1.7147 11.8202 1.43374 11.8202C1.15258 11.8202 0.9245 11.5922 0.9245 11.311C0.9245 11.0298 1.15258 10.8019 1.43374 10.8019C1.7147 10.8019 1.94278 11.0298 1.94278 11.311Z" stroke="#68D585" stroke-width="0.145469"/>
<path fill-rule="evenodd" clip-rule="evenodd" d="M4.7067 11.3109C4.7067 11.5921 4.47862 11.82 4.19765 11.82C3.9165 11.82 3.68842 11.5921 3.68842 11.3109C3.68842 11.0297 3.9165 10.8018 4.19765 10.8018C4.47862 10.8018 4.7067 11.0297 4.7067 11.3109Z" stroke="#68D585" stroke-width="0.145469"/>
<path fill-rule="evenodd" clip-rule="evenodd" d="M7.3251 11.3109C7.3251 11.5921 7.09703 11.82 6.81606 11.82C6.5349 11.82 6.30682 11.5921 6.30682 11.3109C6.30682 11.0297 6.5349 10.8018 6.81606 10.8018C7.09703 10.8018 7.3251 11.0297 7.3251 11.3109Z" stroke="#68D585" stroke-width="0.145469"/>
<path fill-rule="evenodd" clip-rule="evenodd" d="M9.94357 11.3109C9.94357 11.5921 9.71569 11.82 9.43453 11.82C9.15337 11.82 8.92529 11.5921 8.92529 11.3109C8.92529 11.0297 9.15337 10.8018 9.43453 10.8018C9.71569 10.8018 9.94357 11.0297 9.94357 11.3109Z" stroke="#68D585" stroke-width="0.145469"/>
<path fill-rule="evenodd" clip-rule="evenodd" d="M12.562 11.3109C12.562 11.5921 12.3341 11.82 12.0528 11.82C11.7716 11.82 11.5437 11.5921 11.5437 11.3109C11.5437 11.0297 11.7716 10.8018 12.0528 10.8018C12.3341 10.8018 12.562 11.0297 12.562 11.3109Z" stroke="#68D585" stroke-width="0.145469"/>
<path fill-rule="evenodd" clip-rule="evenodd" d="M15.1805 11.3109C15.1805 11.5921 14.9525 11.82 14.6713 11.82C14.3901 11.82 14.1622 11.5921 14.1622 11.3109C14.1622 11.0297 14.3901 10.8018 14.6713 10.8018C14.9525 10.8018 15.1805 11.0297 15.1805 11.3109Z" stroke="#68D585" stroke-width="0.145469"/>
<path fill-rule="evenodd" clip-rule="evenodd" d="M17.7989 11.3109C17.7989 11.5921 17.5709 11.82 17.2899 11.82C17.0085 11.82 16.7806 11.5921 16.7806 11.3109C16.7806 11.0297 17.0085 10.8018 17.2899 10.8018C17.5709 10.8018 17.7989 11.0297 17.7989 11.3109Z" stroke="#68D585" stroke-width="0.145469"/>
<path fill-rule="evenodd" clip-rule="evenodd" d="M20.4173 11.3109C20.4173 11.5921 20.1892 11.82 19.9083 11.82C19.6269 11.82 19.399 11.5921 19.399 11.3109C19.399 11.0297 19.6269 10.8018 19.9083 10.8018C20.1892 10.8018 20.4173 11.0297 20.4173 11.3109Z" stroke="#68D585" stroke-width="0.145469"/>
<path fill-rule="evenodd" clip-rule="evenodd" d="M23.0357 11.3109C23.0357 11.5921 22.8077 11.82 22.5267 11.82C22.2455 11.82 22.0175 11.5921 22.0175 11.3109C22.0175 11.0297 22.2455 10.8018 22.5267 10.8018C22.8077 10.8018 23.0357 11.0297 23.0357 11.3109Z" stroke="#68D585" stroke-width="0.145469"/>
<path fill-rule="evenodd" clip-rule="evenodd" d="M25.6541 11.3109C25.6541 11.5921 25.4261 11.82 25.1451 11.82C24.8639 11.82 24.6359 11.5921 24.6359 11.3109C24.6359 11.0297 24.8639 10.8018 25.1451 10.8018C25.4261 10.8018 25.6541 11.0297 25.6541 11.3109Z" stroke="#68D585" stroke-width="0.145469"/>
</svg>
